<svg width="512" height="512" viewBox="0 0 512 512" fill="none" xmlns="http://www.w3.org/2000/svg">
<rect width="512" height="512" fill="#005293"/>
<path fill-rule="evenodd" clip-rule="evenodd" d="M267.014 187.751C263.208 185.588 259.403 184.507 255.597 184.507C244.931 184.507 234.264 193.004 223.597 210C226.551 214.706 229.504 218.76 232.458 222.163L236.992 217.648C235.315 215.686 233.614 213.464 231.891 210.976L231.22 209.997L231.891 209.024C240.433 196.69 248.441 190.88 255.597 190.88L256.196 190.893C258.16 190.982 260.188 191.504 262.272 192.474L267.014 187.751ZM250.232 213.476L259.088 204.657C260.84 205.794 261.997 207.763 261.997 210C261.997 213.52 259.132 216.373 255.597 216.373C253.351 216.373 251.374 215.22 250.232 213.476ZM241.402 222.27C246.185 226.686 250.739 228.915 254.999 229.107L255.597 229.12C262.754 229.12 270.762 223.31 279.304 210.976L279.972 209.997L279.304 209.024C275.339 203.299 271.49 198.98 267.787 195.995L272.326 191.474C277.417 195.714 282.507 201.889 287.597 210C276.931 226.995 266.264 235.493 255.597 235.493C249.358 235.493 243.12 232.586 236.881 226.772L241.402 222.27Z" fill="#FECB00"/>
<path fill-rule="evenodd" clip-rule="evenodd" d="M285.723 184.507L229.997 240L225.472 235.493L281.197 180L285.723 184.507Z" fill="#FECB00"/>
<path d="M131.255 292.204C127.858 292.204 125.133 291.308 123.08 289.516C121.026 287.724 120 285.373 120 282.461H127.503C127.503 283.469 127.839 284.29 128.511 284.925C129.221 285.522 130.135 285.821 131.255 285.821H136.294C138.534 285.821 139.654 285.205 139.654 283.973V283.021C139.654 282.648 139.467 282.312 139.094 282.013C138.721 281.677 138.217 281.453 137.582 281.341L127.895 279.661C125.618 279.288 123.808 278.485 122.464 277.253C121.157 275.984 120.504 274.51 120.504 272.83V270.982C120.504 268.593 121.474 266.727 123.416 265.383C125.394 264.039 128.138 263.367 131.647 263.367H136.014C139.15 263.367 141.67 264.207 143.574 265.887C145.515 267.529 146.485 269.713 146.485 272.438H138.982C138.982 271.617 138.702 270.964 138.142 270.478C137.62 269.993 136.91 269.75 136.014 269.75H131.759C129.332 269.75 128.119 270.31 128.119 271.43V272.326C128.119 272.737 128.269 273.091 128.567 273.39C128.903 273.651 129.37 273.838 129.967 273.95L140.158 275.798C142.286 276.171 144.003 276.974 145.309 278.205C146.616 279.4 147.269 280.763 147.269 282.293V284.309C147.269 286.735 146.261 288.658 144.246 290.076C142.267 291.495 139.617 292.204 136.294 292.204H131.255ZM163.954 291.756C160.669 291.756 158.261 291.01 156.731 289.516C155.2 288.023 154.435 285.709 154.435 282.573V270.31H149.507V263.815H154.659V255.36H162.05V263.815H169.329V270.31H162.05V282.237C162.05 283.282 162.237 284.047 162.61 284.533C163.021 285.018 163.655 285.261 164.514 285.261H169.329V291.756H163.954ZM182.904 292.204C179.993 292.204 177.641 291.476 175.849 290.02C174.057 288.564 173.161 286.642 173.161 284.253V282.181C173.161 279.829 174.095 277.944 175.961 276.526C177.828 275.07 180.291 274.342 183.352 274.342H186.768C187.739 274.342 188.784 274.472 189.904 274.734C191.024 274.995 192.05 275.35 192.983 275.798V272.886C192.983 271.953 192.666 271.206 192.031 270.646C191.434 270.049 190.632 269.75 189.624 269.75H184.808C183.763 269.75 182.923 269.993 182.288 270.478C181.654 270.964 181.337 271.617 181.337 272.438H173.945C173.945 269.713 174.935 267.529 176.913 265.887C178.929 264.207 181.561 263.367 184.808 263.367H189.624C192.909 263.367 195.559 264.244 197.575 265.999C199.591 267.716 200.599 270.012 200.599 272.886V291.756H193.543V288.396C192.647 289.554 191.546 290.487 190.24 291.196C188.933 291.868 187.645 292.204 186.376 292.204H182.904ZM186.936 286.381C188.317 286.381 189.549 286.026 190.632 285.317C191.714 284.607 192.498 283.655 192.983 282.461V281.509C192.386 281.061 191.546 280.707 190.464 280.445C189.419 280.184 188.299 280.053 187.104 280.053H183.576C182.68 280.053 181.952 280.277 181.393 280.725C180.833 281.173 180.553 281.77 180.553 282.517V283.973C180.553 284.682 180.851 285.261 181.449 285.709C182.083 286.157 182.904 286.381 183.912 286.381H186.936ZM218.964 291.756C215.679 291.756 213.271 291.01 211.741 289.516C210.21 288.023 209.445 285.709 209.445 282.573V270.31H204.517V263.815H209.669V255.36H217.06V263.815H224.34V270.31H217.06V282.237C217.06 283.282 217.247 284.047 217.62 284.533C218.031 285.018 218.665 285.261 219.524 285.261H224.34V291.756H218.964ZM234.539 261.183C233.083 261.183 231.907 260.772 231.011 259.951C230.153 259.093 229.724 257.973 229.724 256.592C229.724 255.21 230.153 254.109 231.011 253.288C231.907 252.429 233.083 252 234.539 252C235.995 252 237.152 252.429 238.011 253.288C238.907 254.109 239.355 255.21 239.355 256.592C239.355 257.973 238.907 259.093 238.011 259.951C237.152 260.772 235.995 261.183 234.539 261.183ZM230.732 263.815H238.347V291.756H230.732V263.815ZM256.662 292.204C254.31 292.204 252.22 291.737 250.39 290.804C248.599 289.871 247.199 288.564 246.191 286.885C245.22 285.205 244.735 283.263 244.735 281.061V274.51C244.735 272.307 245.22 270.366 246.191 268.686C247.199 267.007 248.599 265.7 250.39 264.767C252.182 263.833 254.254 263.367 256.606 263.367H261.029C263.269 263.367 265.248 263.815 266.965 264.711C268.682 265.607 270.007 266.876 270.94 268.518C271.874 270.124 272.34 271.99 272.34 274.118H264.781C264.781 272.849 264.426 271.841 263.717 271.094C263.045 270.31 262.149 269.918 261.029 269.918H256.718C255.411 269.918 254.347 270.404 253.526 271.374C252.742 272.307 252.35 273.539 252.35 275.07V280.501C252.35 282.032 252.761 283.282 253.582 284.253C254.403 285.186 255.467 285.653 256.774 285.653H261.085C262.28 285.653 263.232 285.223 263.941 284.365C264.688 283.506 265.061 282.368 265.061 280.949H272.62C272.62 284.346 271.556 287.071 269.429 289.124C267.338 291.178 264.557 292.204 261.085 292.204H256.662ZM277.188 252.56H284.803V266.615C285.624 265.644 286.632 264.86 287.827 264.263C289.059 263.665 290.235 263.367 291.354 263.367H294.826C297.811 263.367 300.201 264.3 301.993 266.167C303.823 268.033 304.737 270.497 304.737 273.558V291.756H297.121V273.838C297.121 272.681 296.803 271.747 296.169 271.038C295.571 270.329 294.789 269.974 293.818 269.974H290.346C289.04 269.974 287.864 270.46 286.819 271.43C285.811 272.363 285.139 273.595 284.803 275.126V291.756H277.188V252.56ZM321.68 292.204C319.328 292.204 317.236 291.756 315.409 290.86C313.617 289.927 312.217 288.62 311.209 286.941C310.237 285.261 309.753 283.319 309.753 281.117V274.566C309.753 272.363 310.257 270.422 311.265 268.742C312.273 267.025 313.673 265.7 315.465 264.767C317.292 263.833 319.384 263.367 321.736 263.367H326.775C329.127 263.367 331.199 263.833 332.991 264.767C334.818 265.7 336.239 267.025 337.246 268.742C338.254 270.422 338.758 272.363 338.758 274.566V281.117C338.758 283.319 338.254 285.261 337.246 286.941C336.239 288.62 334.818 289.927 332.991 290.86C331.199 291.756 329.107 292.204 326.719 292.204H321.68ZM326.607 285.653C327.987 285.653 329.089 285.186 329.911 284.253C330.731 283.282 331.143 282.032 331.143 280.501V275.07C331.143 273.539 330.731 272.307 329.911 271.374C329.089 270.404 328.007 269.918 326.663 269.918H321.848C320.504 269.918 319.42 270.404 318.6 271.374C317.778 272.307 317.368 273.539 317.368 275.07V280.501C317.368 282.032 317.778 283.282 318.6 284.253C319.42 285.186 320.484 285.653 321.792 285.653H326.607ZM354.029 292.204C350.632 292.204 347.908 291.308 345.854 289.516C343.8 287.724 342.775 285.373 342.775 282.461H350.278C350.278 283.469 350.614 284.29 351.286 284.925C351.996 285.522 352.91 285.821 354.029 285.821H359.069C361.309 285.821 362.429 285.205 362.429 283.973V283.021C362.429 282.648 362.243 282.312 361.869 282.013C361.495 281.677 360.991 281.453 360.357 281.341L350.67 279.661C348.392 279.288 346.582 278.485 345.238 277.253C343.933 275.984 343.279 274.51 343.279 272.83V270.982C343.279 268.593 344.248 266.727 346.19 265.383C348.168 264.039 350.912 263.367 354.421 263.367H358.789C361.925 263.367 364.444 264.207 366.348 265.887C368.29 267.529 369.26 269.713 369.26 272.438H361.757C361.757 271.617 361.477 270.964 360.917 270.478C360.395 269.993 359.685 269.75 358.789 269.75H354.533C352.108 269.75 350.894 270.31 350.894 271.43V272.326C350.894 272.737 351.044 273.091 351.342 273.39C351.678 273.651 352.143 273.838 352.742 273.95L362.933 275.798C365.06 276.171 366.778 276.974 368.084 278.205C369.39 279.4 370.044 280.763 370.044 282.293V284.309C370.044 286.735 369.036 288.658 367.02 290.076C365.043 291.495 362.39 292.204 359.069 292.204H354.029ZM386.728 291.756C383.444 291.756 381.037 291.01 379.504 289.516C377.975 288.023 377.209 285.709 377.209 282.573V270.31H372.281V263.815H377.433V255.36H384.824V263.815H392.103V270.31H384.824V282.237C384.824 283.282 385.012 284.047 385.384 284.533C385.796 285.018 386.43 285.261 387.288 285.261H392.103V291.756H386.728Z" fill="white"/>
<path d="M172.347 328H169.654V319.273H172.467C173.313 319.273 174.038 319.447 174.64 319.797C175.242 320.143 175.704 320.642 176.025 321.293C176.346 321.94 176.507 322.716 176.507 323.619C176.507 324.528 176.345 325.311 176.021 325.967C175.697 326.621 175.225 327.124 174.606 327.476C173.987 327.825 173.234 328 172.347 328ZM170.711 327.062H172.279C173.001 327.062 173.599 326.923 174.073 326.645C174.548 326.366 174.901 325.97 175.134 325.456C175.367 324.942 175.484 324.33 175.484 323.619C175.484 322.915 175.369 322.308 175.139 321.8C174.908 321.288 174.565 320.896 174.107 320.624C173.65 320.348 173.08 320.21 172.399 320.21H170.711V327.062ZM186.679 328V319.273H191.946V320.21H187.736V323.159H191.674V324.097H187.736V327.062H192.014V328H186.679ZM202.251 328V319.273H205.2C205.885 319.273 206.444 319.396 206.879 319.643C207.316 319.888 207.64 320.219 207.851 320.636C208.061 321.054 208.166 321.52 208.166 322.034C208.166 322.548 208.061 323.016 207.851 323.436C207.643 323.857 207.322 324.192 206.887 324.442C206.453 324.689 205.896 324.812 205.217 324.812H203.103V323.875H205.183C205.652 323.875 206.028 323.794 206.312 323.632C206.596 323.47 206.802 323.251 206.93 322.976C207.061 322.697 207.126 322.384 207.126 322.034C207.126 321.685 207.061 321.372 206.93 321.097C206.802 320.821 206.595 320.605 206.308 320.449C206.021 320.29 205.64 320.21 205.166 320.21H203.308V328H202.251ZM218.268 328V319.273H219.325V327.062H223.382V328H218.268ZM240.442 323.636C240.442 324.557 240.276 325.352 239.944 326.023C239.611 326.693 239.155 327.21 238.576 327.574C237.996 327.938 237.334 328.119 236.59 328.119C235.845 328.119 235.184 327.938 234.604 327.574C234.024 327.21 233.569 326.693 233.236 326.023C232.904 325.352 232.738 324.557 232.738 323.636C232.738 322.716 232.904 321.92 233.236 321.25C233.569 320.58 234.024 320.062 234.604 319.699C235.184 319.335 235.845 319.153 236.59 319.153C237.334 319.153 237.996 319.335 238.576 319.699C239.155 320.062 239.611 320.58 239.944 321.25C240.276 321.92 240.442 322.716 240.442 323.636ZM239.419 323.636C239.419 322.881 239.293 322.243 239.04 321.723C238.79 321.203 238.451 320.81 238.022 320.543C237.595 320.276 237.118 320.142 236.59 320.142C236.061 320.142 235.583 320.276 235.154 320.543C234.728 320.81 234.388 321.203 234.135 321.723C233.885 322.243 233.76 322.881 233.76 323.636C233.76 324.392 233.885 325.03 234.135 325.55C234.388 326.07 234.728 326.463 235.154 326.73C235.583 326.997 236.061 327.131 236.59 327.131C237.118 327.131 237.595 326.997 238.022 326.73C238.451 326.463 238.79 326.07 239.04 325.55C239.293 325.03 239.419 324.392 239.419 323.636ZM249.459 319.273H250.669L253.09 323.347H253.192L255.612 319.273H256.823L253.669 324.403V328H252.612V324.403L249.459 319.273ZM266.589 319.273H267.851L270.817 326.517H270.919L273.885 319.273H275.146V328H274.158V321.369H274.072L271.345 328H270.391L267.663 321.369H267.578V328H266.589V319.273ZM285.665 328V319.273H290.932V320.21H286.722V323.159H290.659V324.097H286.722V327.062H291V328H285.665ZM308.157 319.273V328H307.135L302.379 321.148H302.294V328H301.237V319.273H302.26L307.032 326.142H307.118V319.273H308.157ZM318.195 320.21V319.273H324.74V320.21H321.996V328H320.939V320.21H318.195ZM339.544 321.455C339.493 321.023 339.286 320.688 338.922 320.449C338.558 320.21 338.112 320.091 337.584 320.091C337.198 320.091 336.859 320.153 336.57 320.278C336.283 320.403 336.058 320.575 335.896 320.794C335.737 321.013 335.658 321.261 335.658 321.54C335.658 321.773 335.713 321.973 335.824 322.141C335.938 322.305 336.082 322.443 336.259 322.554C336.435 322.662 336.619 322.751 336.813 322.822C337.006 322.891 337.183 322.946 337.345 322.989L338.232 323.227C338.459 323.287 338.712 323.369 338.99 323.474C339.271 323.58 339.54 323.723 339.796 323.905C340.054 324.084 340.267 324.314 340.435 324.595C340.602 324.876 340.686 325.222 340.686 325.631C340.686 326.102 340.563 326.528 340.315 326.909C340.071 327.29 339.713 327.592 339.242 327.817C338.773 328.041 338.203 328.153 337.533 328.153C336.908 328.153 336.367 328.053 335.909 327.851C335.455 327.649 335.097 327.368 334.835 327.007C334.577 326.646 334.431 326.227 334.396 325.75H335.487C335.516 326.08 335.627 326.352 335.82 326.568C336.016 326.781 336.263 326.94 336.561 327.045C336.862 327.148 337.186 327.199 337.533 327.199C337.936 327.199 338.298 327.134 338.619 327.003C338.94 326.869 339.195 326.685 339.382 326.449C339.57 326.21 339.663 325.932 339.663 325.614C339.663 325.324 339.582 325.088 339.421 324.906C339.259 324.724 339.046 324.577 338.781 324.463C338.517 324.349 338.232 324.25 337.925 324.165L336.851 323.858C336.169 323.662 335.629 323.382 335.232 323.018C334.834 322.655 334.635 322.179 334.635 321.591C334.635 321.102 334.767 320.676 335.031 320.312C335.298 319.946 335.656 319.662 336.105 319.46C336.557 319.256 337.061 319.153 337.618 319.153C338.181 319.153 338.681 319.254 339.118 319.456C339.556 319.655 339.902 319.928 340.158 320.274C340.416 320.621 340.553 321.014 340.567 321.455H339.544Z" fill="white"/>
</svg>
