<svg width="220" height="30" viewBox="0 0 220 30" fill="none" xmlns="http://www.w3.org/2000/svg">
<g clip-path="url(#clip0_713_38)">
<path d="M0 8C0 3.58172 3.25611 0 7.27273 0H130V30H7.27273C3.25612 30 0 26.4183 0 22V8Z" fill="#A07E06"/>
<path d="M220 8C220 3.58172 216.418 0 212 0H130V30H212C216.418 30 220 26.4183 220 22V8Z" fill="#F7DCB3"/>
<path d="M35.2376 21.7373C34.1325 21.7373 33.246 21.4458 32.5781 20.8629C31.9101 20.28 31.5762 19.5149 31.5762 18.5677H34.0171C34.0171 18.8956 34.1264 19.1628 34.345 19.3692C34.5758 19.5635 34.8733 19.6607 35.2376 19.6607H36.877C37.6057 19.6607 37.97 19.4603 37.97 19.0595V18.7499C37.97 18.6284 37.9093 18.5191 37.7878 18.422C37.6664 18.3127 37.5024 18.2398 37.296 18.2034L34.1446 17.6569C33.4038 17.5354 32.8149 17.2744 32.3777 16.8736C31.9527 16.4607 31.7401 15.981 31.7401 15.4346V14.8334C31.7401 14.0562 32.0558 13.449 32.6873 13.0118C33.331 12.5746 34.2235 12.3561 35.3651 12.3561H36.7859C37.806 12.3561 38.6258 12.6293 39.2451 13.1758C39.8766 13.7101 40.1923 14.4205 40.1923 15.307H37.7514C37.7514 15.0398 37.6603 14.8274 37.4782 14.6695C37.3082 14.5116 37.0774 14.4327 36.7859 14.4327H35.4015C34.6122 14.4327 34.2175 14.6148 34.2175 14.9792V15.2706C34.2175 15.4042 34.2661 15.5196 34.3632 15.6167C34.4725 15.7018 34.6243 15.7624 34.8186 15.7989L38.1339 16.4C38.8261 16.5215 39.3848 16.7825 39.8098 17.1833C40.2348 17.5719 40.4474 18.0152 40.4474 18.5131V19.1688C40.4474 19.9582 40.1195 20.5836 39.4637 21.0451C38.8201 21.5065 37.9578 21.7373 36.877 21.7373H35.2376ZM45.8752 21.5916C44.8065 21.5916 44.0232 21.3487 43.5253 20.8629C43.0274 20.3771 42.7784 19.6242 42.7784 18.6041V14.6148H41.1754V12.5018H42.8513V9.75116H45.2558V12.5018H47.6239V14.6148H45.2558V18.4948C45.2558 18.8349 45.3165 19.0838 45.438 19.2417C45.5715 19.3996 45.778 19.4785 46.0573 19.4785H47.6239V21.5916H45.8752ZM52.0401 21.7373C51.0929 21.7373 50.3278 21.5005 49.7449 21.0269C49.162 20.5533 48.8705 19.9279 48.8705 19.1506V18.4766C48.8705 17.7116 49.1742 17.0983 49.7813 16.6368C50.3886 16.1632 51.1901 15.9264 52.1858 15.9264H53.297C53.6128 15.9264 53.9528 15.9689 54.3171 16.0539C54.6814 16.1389 55.0154 16.2543 55.319 16.4V15.4528C55.319 15.1491 55.2158 14.9063 55.0093 14.7241C54.8151 14.5298 54.5539 14.4327 54.226 14.4327H52.6595C52.3195 14.4327 52.0462 14.5116 51.8397 14.6695C51.6333 14.8274 51.5301 15.0398 51.5301 15.307H49.1256C49.1256 14.4205 49.4474 13.7101 50.091 13.1758C50.7468 12.6293 51.6029 12.3561 52.6595 12.3561H54.226C55.2947 12.3561 56.1569 12.6415 56.8127 13.2122C57.4685 13.7709 57.7964 14.5177 57.7964 15.4528V21.5916H55.5012V20.4986C55.2097 20.8751 54.8515 21.1786 54.4264 21.4094C54.0014 21.628 53.5824 21.7373 53.1695 21.7373H52.0401ZM53.3517 19.8428C53.801 19.8428 54.2018 19.7275 54.5539 19.4967C54.9062 19.266 55.1612 18.9563 55.319 18.5677V18.258C55.1247 18.1123 54.8515 17.997 54.4993 17.9119C54.1593 17.8269 53.795 17.7844 53.4063 17.7844H52.2587C51.9672 17.7844 51.7304 17.8573 51.5483 18.003C51.3661 18.1487 51.275 18.3431 51.275 18.5859V19.0595C51.275 19.2903 51.3722 19.4785 51.5665 19.6242C51.773 19.77 52.0401 19.8428 52.368 19.8428H53.3517ZM63.771 21.5916C62.7023 21.5916 61.919 21.3487 61.4211 20.8629C60.9232 20.3771 60.6742 19.6242 60.6742 18.6041V14.6148H59.0712V12.5018H60.7471V9.75116H63.1516V12.5018H65.5197V14.6148H63.1516V18.4948C63.1516 18.8349 63.2123 19.0838 63.3338 19.2417C63.4673 19.3996 63.6738 19.4785 63.9531 19.4785H65.5197V21.5916H63.771ZM68.8378 11.6456C68.3642 11.6456 67.9817 11.512 67.6902 11.2449C67.4109 10.9656 67.2713 10.6012 67.2713 10.1519C67.2713 9.70258 67.4109 9.34434 67.6902 9.07717C67.9817 8.79786 68.3642 8.6582 68.8378 8.6582C69.3114 8.6582 69.6879 8.79786 69.9672 9.07717C70.2587 9.34434 70.4044 9.70258 70.4044 10.1519C70.4044 10.6012 70.2587 10.9656 69.9672 11.2449C69.6879 11.512 69.3114 11.6456 68.8378 11.6456ZM67.5991 12.5018H70.0765V21.5916H67.5991V12.5018ZM76.0347 21.7373C75.2697 21.7373 74.5896 21.5855 73.9945 21.2819C73.4116 20.9783 72.9562 20.5533 72.6283 20.0068C72.3126 19.4603 72.1547 18.8288 72.1547 18.1123V15.981C72.1547 15.2646 72.3126 14.6331 72.6283 14.0866C72.9562 13.5401 73.4116 13.1151 73.9945 12.8115C74.5774 12.5078 75.2514 12.3561 76.0165 12.3561H77.4556C78.1842 12.3561 78.8278 12.5018 79.3865 12.7932C79.9451 13.0847 80.3762 13.4976 80.6798 14.0319C80.9834 14.5541 81.1352 15.1613 81.1352 15.8535H78.676C78.676 15.4406 78.5607 15.1127 78.3299 14.8699C78.1113 14.6148 77.8199 14.4873 77.4556 14.4873H76.0529C75.6279 14.4873 75.2818 14.6452 75.0146 14.9609C74.7596 15.2646 74.6321 15.6653 74.6321 16.1632V17.9301C74.6321 18.428 74.7657 18.8349 75.0328 19.1506C75.3 19.4542 75.6461 19.606 76.0712 19.606H77.4738C77.8624 19.606 78.172 19.4663 78.4028 19.1871C78.6457 18.9078 78.7671 18.5373 78.7671 18.0759H81.2263C81.2263 19.181 80.8802 20.0675 80.188 20.7354C79.5079 21.4034 78.6032 21.7373 77.4738 21.7373H76.0347ZM82.7122 8.84036H85.1896V13.4126C85.4567 13.0969 85.7846 12.8418 86.1733 12.6475C86.574 12.4532 86.9565 12.3561 87.3209 12.3561H88.4503C89.4213 12.3561 90.1988 12.6597 90.7817 13.2669C91.3771 13.874 91.6743 14.6755 91.6743 15.6714V21.5916H89.1969V15.7624C89.1969 15.386 89.0934 15.0824 88.8873 14.8516C88.6927 14.6209 88.4381 14.5055 88.1224 14.5055H86.993C86.5679 14.5055 86.1853 14.6634 85.8454 14.9792C85.5175 15.2828 85.2989 15.6835 85.1896 16.1814V21.5916H82.7122V8.84036ZM97.1863 21.7373C96.4212 21.7373 95.7406 21.5916 95.1461 21.3001C94.5632 20.9965 94.1078 20.5715 93.7799 20.025C93.4636 19.4785 93.3063 18.847 93.3063 18.1305V15.9993C93.3063 15.2828 93.4703 14.6513 93.7981 14.1048C94.126 13.5461 94.5814 13.1151 95.1643 12.8115C95.7588 12.5078 96.4395 12.3561 97.2045 12.3561H98.844C99.609 12.3561 100.283 12.5078 100.866 12.8115C101.46 13.1151 101.922 13.5461 102.25 14.1048C102.578 14.6513 102.742 15.2828 102.742 15.9993V18.1305C102.742 18.847 102.578 19.4785 102.25 20.025C101.922 20.5715 101.46 20.9965 100.866 21.3001C100.283 21.5916 99.6024 21.7373 98.8258 21.7373H97.1863ZM98.7893 19.606C99.2381 19.606 99.5966 19.4542 99.8641 19.1506C100.131 18.8349 100.265 18.428 100.265 17.9301V16.1632C100.265 15.6653 100.131 15.2646 99.8641 14.9609C99.5966 14.6452 99.2447 14.4873 98.8075 14.4873H97.241C96.8038 14.4873 96.4511 14.6452 96.1844 14.9609C95.917 15.2646 95.7837 15.6653 95.7837 16.1632V17.9301C95.7837 18.428 95.917 18.8349 96.1844 19.1506C96.4511 19.4542 96.7972 19.606 97.2228 19.606H98.7893ZM107.71 21.7373C106.605 21.7373 105.719 21.4458 105.051 20.8629C104.382 20.28 104.049 19.5149 104.049 18.5677H106.49C106.49 18.8956 106.599 19.1628 106.818 19.3692C107.049 19.5635 107.346 19.6607 107.71 19.6607H109.35C110.078 19.6607 110.443 19.4603 110.443 19.0595V18.7499C110.443 18.6284 110.382 18.5191 110.26 18.422C110.139 18.3127 109.975 18.2398 109.769 18.2034L106.617 17.6569C105.876 17.5354 105.287 17.2744 104.85 16.8736C104.426 16.4607 104.213 15.981 104.213 15.4346V14.8334C104.213 14.0562 104.528 13.449 105.16 13.0118C105.803 12.5746 106.696 12.3561 107.838 12.3561H109.259C110.279 12.3561 111.098 12.6293 111.718 13.1758C112.349 13.7101 112.665 14.4205 112.665 15.307H110.224C110.224 15.0398 110.133 14.8274 109.951 14.6695C109.781 14.5116 109.55 14.4327 109.259 14.4327H107.874C107.085 14.4327 106.69 14.6148 106.69 14.9792V15.2706C106.69 15.4042 106.739 15.5196 106.836 15.6167C106.945 15.7018 107.097 15.7624 107.291 15.7989L110.607 16.4C111.299 16.5215 111.858 16.7825 112.282 17.1833C112.707 17.5719 112.92 18.0152 112.92 18.5131V19.1688C112.92 19.9582 112.592 20.5836 111.936 21.0451C111.293 21.5065 110.43 21.7373 109.35 21.7373H107.71ZM118.348 21.5916C117.279 21.5916 116.496 21.3487 115.998 20.8629C115.5 20.3771 115.251 19.6242 115.251 18.6041V14.6148H113.648V12.5018H115.324V9.75116H117.728V12.5018H120.096V14.6148H117.728V18.4948C117.728 18.8349 117.789 19.0838 117.91 19.2417C118.044 19.3996 118.251 19.4785 118.53 19.4785H120.096V21.5916H118.348Z" fill="#F7DCB3"/>
<path fill-rule="evenodd" clip-rule="evenodd" d="M21.234 10.014C20.2493 9.45199 19.2647 9.17097 18.28 9.17097C15.52 9.17097 12.76 11.379 10 15.795C10.7642 17.0177 11.5284 18.0711 12.2926 18.9554L13.4657 17.7823C13.0319 17.2723 12.5918 16.6949 12.146 16.0486L11.9723 15.7941L12.146 15.5414C14.3563 12.3366 16.4283 10.827 18.28 10.827L18.4348 10.8305C18.9431 10.8534 19.4678 10.989 20.007 11.2411L21.234 10.014ZM16.8918 16.6982L19.1832 14.4067C19.6364 14.7022 19.936 15.2136 19.936 15.795C19.936 16.7096 19.1946 17.451 18.28 17.451C17.6987 17.451 17.1872 17.1514 16.8918 16.6982ZM14.6069 18.983C15.8446 20.1305 17.023 20.7098 18.1252 20.7595L18.28 20.763C20.1317 20.763 22.2037 19.2534 24.414 16.0486L24.5869 15.7941L24.414 15.5414C23.3882 14.0539 22.3921 12.9317 21.4339 12.156L22.6086 10.9813C23.9257 12.083 25.2429 13.6875 26.56 15.795C23.8 20.2109 21.04 22.419 18.28 22.419C16.6656 22.419 15.0514 21.6636 13.4371 20.1529L14.6069 18.983Z" fill="#F7DCB3"/>
<path fill-rule="evenodd" clip-rule="evenodd" d="M26.075 9.17097L11.656 23.5899L10.485 22.419L24.904 8L26.075 9.17097Z" fill="#F7DCB3"/>
<path d="M142.843 20.704C142.174 20.704 141.579 20.5963 141.058 20.381C140.537 20.1543 140.1 19.8427 139.749 19.446C139.398 19.038 139.131 18.545 138.95 17.967C138.769 17.389 138.678 16.743 138.678 16.029C138.678 15.315 138.769 14.6747 138.95 14.108C139.131 13.53 139.398 13.037 139.749 12.629C140.1 12.221 140.537 11.9093 141.058 11.694C141.579 11.4787 142.174 11.371 142.843 11.371C143.75 11.371 144.503 11.575 145.104 11.983C145.716 12.391 146.152 12.9633 146.413 13.7L144.373 14.584C144.294 14.244 144.129 13.955 143.88 13.717C143.631 13.479 143.285 13.36 142.843 13.36C142.333 13.36 141.948 13.53 141.687 13.87C141.426 14.1987 141.296 14.6463 141.296 15.213V16.879C141.296 17.4457 141.426 17.8933 141.687 18.222C141.948 18.5507 142.333 18.715 142.843 18.715C143.296 18.715 143.653 18.596 143.914 18.358C144.186 18.1087 144.384 17.7857 144.509 17.389L146.464 18.239C146.169 19.089 145.71 19.7123 145.087 20.109C144.475 20.5057 143.727 20.704 142.843 20.704ZM154.617 20.5C154.164 20.5 153.784 20.3583 153.478 20.075C153.183 19.7917 152.996 19.412 152.917 18.936H152.815C152.679 19.514 152.379 19.956 151.914 20.262C151.449 20.5567 150.877 20.704 150.197 20.704C149.302 20.704 148.616 20.466 148.14 19.99C147.664 19.514 147.426 18.885 147.426 18.103C147.426 17.1623 147.766 16.4653 148.446 16.012C149.137 15.5473 150.072 15.315 151.251 15.315H152.662V14.754C152.662 14.3233 152.549 13.9833 152.322 13.734C152.095 13.4733 151.716 13.343 151.183 13.343C150.684 13.343 150.288 13.4507 149.993 13.666C149.698 13.8813 149.455 14.125 149.262 14.397L147.766 13.071C148.129 12.5383 148.582 12.1247 149.126 11.83C149.681 11.524 150.429 11.371 151.37 11.371C152.639 11.371 153.591 11.6487 154.226 12.204C154.861 12.7593 155.178 13.5697 155.178 14.635V18.545H156.011V20.5H154.617ZM151.132 18.953C151.551 18.953 151.908 18.8623 152.203 18.681C152.509 18.4997 152.662 18.205 152.662 17.797V16.743H151.438C150.452 16.743 149.959 17.0773 149.959 17.746V18.001C149.959 18.3297 150.061 18.5733 150.265 18.732C150.469 18.8793 150.758 18.953 151.132 18.953ZM157.7 20.5V11.575H160.216V13.088H160.318C160.477 12.6233 160.754 12.221 161.151 11.881C161.548 11.541 162.097 11.371 162.8 11.371C163.718 11.371 164.409 11.677 164.874 12.289C165.35 12.901 165.588 13.7737 165.588 14.907V20.5H163.072V15.111C163.072 14.533 162.981 14.108 162.8 13.836C162.619 13.5527 162.296 13.411 161.831 13.411C161.627 13.411 161.429 13.4393 161.236 13.496C161.043 13.5413 160.868 13.6207 160.709 13.734C160.562 13.8473 160.443 13.989 160.352 14.159C160.261 14.3177 160.216 14.5047 160.216 14.72V20.5H157.7ZM171.431 20.704C170.762 20.704 170.167 20.5963 169.646 20.381C169.124 20.1543 168.688 19.8427 168.337 19.446C167.985 19.038 167.719 18.545 167.538 17.967C167.356 17.389 167.266 16.743 167.266 16.029C167.266 15.315 167.356 14.6747 167.538 14.108C167.719 13.53 167.985 13.037 168.337 12.629C168.688 12.221 169.124 11.9093 169.646 11.694C170.167 11.4787 170.762 11.371 171.431 11.371C172.337 11.371 173.091 11.575 173.692 11.983C174.304 12.391 174.74 12.9633 175.001 13.7L172.961 14.584C172.881 14.244 172.717 13.955 172.468 13.717C172.218 13.479 171.873 13.36 171.431 13.36C170.921 13.36 170.535 13.53 170.275 13.87C170.014 14.1987 169.884 14.6463 169.884 15.213V16.879C169.884 17.4457 170.014 17.8933 170.275 18.222C170.535 18.5507 170.921 18.715 171.431 18.715C171.884 18.715 172.241 18.596 172.502 18.358C172.774 18.1087 172.972 17.7857 173.097 17.389L175.052 18.239C174.757 19.089 174.298 19.7123 173.675 20.109C173.063 20.5057 172.315 20.704 171.431 20.704ZM180.249 20.704C179.569 20.704 178.963 20.5963 178.43 20.381C177.897 20.1543 177.444 19.8427 177.07 19.446C176.707 19.038 176.43 18.545 176.237 17.967C176.056 17.389 175.965 16.743 175.965 16.029C175.965 15.3263 176.056 14.6917 176.237 14.125C176.418 13.547 176.685 13.054 177.036 12.646C177.399 12.238 177.841 11.9263 178.362 11.711C178.883 11.4843 179.478 11.371 180.147 11.371C180.884 11.371 181.513 11.4957 182.034 11.745C182.567 11.9943 182.997 12.3287 183.326 12.748C183.666 13.1673 183.91 13.6547 184.057 14.21C184.216 14.754 184.295 15.3263 184.295 15.927V16.675H178.566V16.811C178.566 17.4003 178.725 17.8707 179.042 18.222C179.359 18.562 179.858 18.732 180.538 18.732C181.059 18.732 181.484 18.63 181.813 18.426C182.142 18.2107 182.448 17.9557 182.731 17.661L183.989 19.225C183.592 19.6897 183.071 20.0523 182.425 20.313C181.79 20.5737 181.065 20.704 180.249 20.704ZM180.198 13.224C179.688 13.224 179.286 13.394 178.991 13.734C178.708 14.0627 178.566 14.5047 178.566 15.06V15.196H181.694V15.043C181.694 14.499 181.569 14.0627 181.32 13.734C181.082 13.394 180.708 13.224 180.198 13.224ZM188.571 20.5C187.71 20.5 187.075 20.2903 186.667 19.871C186.27 19.4517 186.072 18.8453 186.072 18.052V7.92H188.588V18.545H189.71V20.5H188.571ZM194.941 20.704C194.261 20.704 193.655 20.5963 193.122 20.381C192.59 20.1543 192.136 19.8427 191.762 19.446C191.4 19.038 191.122 18.545 190.929 17.967C190.748 17.389 190.657 16.743 190.657 16.029C190.657 15.3263 190.748 14.6917 190.929 14.125C191.111 13.547 191.377 13.054 191.728 12.646C192.091 12.238 192.533 11.9263 193.054 11.711C193.576 11.4843 194.171 11.371 194.839 11.371C195.576 11.371 196.205 11.4957 196.726 11.745C197.259 11.9943 197.69 12.3287 198.018 12.748C198.358 13.1673 198.602 13.6547 198.749 14.21C198.908 14.754 198.987 15.3263 198.987 15.927V16.675H193.258V16.811C193.258 17.4003 193.417 17.8707 193.734 18.222C194.052 18.562 194.55 18.732 195.23 18.732C195.752 18.732 196.177 18.63 196.505 18.426C196.834 18.2107 197.14 17.9557 197.423 17.661L198.681 19.225C198.285 19.6897 197.763 20.0523 197.117 20.313C196.483 20.5737 195.757 20.704 194.941 20.704ZM194.89 13.224C194.38 13.224 193.978 13.394 193.683 13.734C193.4 14.0627 193.258 14.5047 193.258 15.06V15.196H196.386V15.043C196.386 14.499 196.262 14.0627 196.012 13.734C195.774 13.394 195.4 13.224 194.89 13.224ZM206.238 19.004H206.153C206.085 19.242 205.978 19.4687 205.83 19.684C205.683 19.888 205.502 20.0693 205.286 20.228C205.082 20.3753 204.844 20.4887 204.572 20.568C204.312 20.6587 204.04 20.704 203.756 20.704C202.623 20.704 201.767 20.3073 201.189 19.514C200.611 18.7093 200.322 17.5477 200.322 16.029C200.322 14.5103 200.611 13.3543 201.189 12.561C201.767 11.7677 202.623 11.371 203.756 11.371C204.334 11.371 204.844 11.5297 205.286 11.847C205.74 12.1643 206.029 12.5723 206.153 13.071H206.238V7.92H208.754V20.5H206.238V19.004ZM204.589 18.664C205.065 18.664 205.456 18.5507 205.762 18.324C206.08 18.086 206.238 17.763 206.238 17.355V14.72C206.238 14.312 206.08 13.9947 205.762 13.768C205.456 13.53 205.065 13.411 204.589 13.411C204.113 13.411 203.717 13.581 203.399 13.921C203.093 14.2497 202.94 14.6973 202.94 15.264V16.811C202.94 17.3777 203.093 17.831 203.399 18.171C203.717 18.4997 204.113 18.664 204.589 18.664Z" fill="black"/>
</g>
<defs>
<clipPath id="clip0_713_38">
<rect width="220" height="30" fill="white"/>
</clipPath>
</defs>
</svg>
