<svg width="220" height="30" viewBox="0 0 220 30" fill="none" xmlns="http://www.w3.org/2000/svg">
<g clip-path="url(#clip0_713_44)">
<path d="M0 8C0 3.58172 3.25611 0 7.27273 0H130V30H7.27273C3.25612 30 0 26.4183 0 22V8Z" fill="#454545"/>
<path d="M220 8C220 3.58172 216.418 0 212 0H130V30H212C216.418 30 220 26.4183 220 22V8Z" fill="#D7D7D7"/>
<path d="M35.2376 21.7373C34.1325 21.7373 33.246 21.4458 32.5781 20.8629C31.9101 20.28 31.5762 19.5149 31.5762 18.5677H34.0171C34.0171 18.8956 34.1264 19.1628 34.345 19.3692C34.5758 19.5635 34.8733 19.6607 35.2376 19.6607H36.877C37.6057 19.6607 37.97 19.4603 37.97 19.0595V18.7499C37.97 18.6284 37.9093 18.5191 37.7878 18.422C37.6664 18.3127 37.5024 18.2398 37.296 18.2034L34.1446 17.6569C33.4038 17.5354 32.8149 17.2744 32.3777 16.8736C31.9527 16.4607 31.7401 15.981 31.7401 15.4346V14.8334C31.7401 14.0562 32.0558 13.449 32.6873 13.0118C33.331 12.5746 34.2235 12.3561 35.3651 12.3561H36.7859C37.806 12.3561 38.6258 12.6293 39.2451 13.1758C39.8766 13.7101 40.1923 14.4205 40.1923 15.307H37.7514C37.7514 15.0398 37.6603 14.8274 37.4782 14.6695C37.3082 14.5116 37.0774 14.4327 36.7859 14.4327H35.4015C34.6122 14.4327 34.2175 14.6148 34.2175 14.9792V15.2706C34.2175 15.4042 34.2661 15.5196 34.3632 15.6167C34.4725 15.7018 34.6243 15.7624 34.8186 15.7989L38.1339 16.4C38.8261 16.5215 39.3848 16.7825 39.8098 17.1833C40.2348 17.5719 40.4474 18.0152 40.4474 18.5131V19.1688C40.4474 19.9582 40.1195 20.5836 39.4637 21.0451C38.8201 21.5065 37.9578 21.7373 36.877 21.7373H35.2376ZM45.8752 21.5916C44.8065 21.5916 44.0232 21.3487 43.5253 20.8629C43.0274 20.3771 42.7784 19.6242 42.7784 18.6041V14.6148H41.1754V12.5018H42.8513V9.75116H45.2558V12.5018H47.6239V14.6148H45.2558V18.4948C45.2558 18.8349 45.3165 19.0838 45.438 19.2417C45.5715 19.3996 45.778 19.4785 46.0573 19.4785H47.6239V21.5916H45.8752ZM52.0401 21.7373C51.0929 21.7373 50.3278 21.5005 49.7449 21.0269C49.162 20.5533 48.8705 19.9279 48.8705 19.1506V18.4766C48.8705 17.7116 49.1742 17.0983 49.7813 16.6368C50.3886 16.1632 51.1901 15.9264 52.1858 15.9264H53.297C53.6128 15.9264 53.9528 15.9689 54.3171 16.0539C54.6814 16.1389 55.0154 16.2543 55.319 16.4V15.4528C55.319 15.1491 55.2158 14.9063 55.0093 14.7241C54.8151 14.5298 54.5539 14.4327 54.226 14.4327H52.6595C52.3195 14.4327 52.0462 14.5116 51.8397 14.6695C51.6333 14.8274 51.5301 15.0398 51.5301 15.307H49.1256C49.1256 14.4205 49.4474 13.7101 50.091 13.1758C50.7468 12.6293 51.6029 12.3561 52.6595 12.3561H54.226C55.2947 12.3561 56.1569 12.6415 56.8127 13.2122C57.4685 13.7709 57.7964 14.5177 57.7964 15.4528V21.5916H55.5012V20.4986C55.2097 20.8751 54.8515 21.1786 54.4264 21.4094C54.0014 21.628 53.5824 21.7373 53.1695 21.7373H52.0401ZM53.3517 19.8428C53.801 19.8428 54.2018 19.7275 54.5539 19.4967C54.9062 19.266 55.1612 18.9563 55.319 18.5677V18.258C55.1247 18.1123 54.8515 17.997 54.4993 17.9119C54.1593 17.8269 53.795 17.7844 53.4063 17.7844H52.2587C51.9672 17.7844 51.7304 17.8573 51.5483 18.003C51.3661 18.1487 51.275 18.3431 51.275 18.5859V19.0595C51.275 19.2903 51.3722 19.4785 51.5665 19.6242C51.773 19.77 52.0401 19.8428 52.368 19.8428H53.3517ZM63.771 21.5916C62.7023 21.5916 61.919 21.3487 61.4211 20.8629C60.9232 20.3771 60.6742 19.6242 60.6742 18.6041V14.6148H59.0712V12.5018H60.7471V9.75116H63.1516V12.5018H65.5197V14.6148H63.1516V18.4948C63.1516 18.8349 63.2123 19.0838 63.3338 19.2417C63.4673 19.3996 63.6738 19.4785 63.9531 19.4785H65.5197V21.5916H63.771ZM68.8378 11.6456C68.3642 11.6456 67.9817 11.512 67.6902 11.2449C67.4109 10.9656 67.2713 10.6012 67.2713 10.1519C67.2713 9.70258 67.4109 9.34434 67.6902 9.07717C67.9817 8.79786 68.3642 8.6582 68.8378 8.6582C69.3114 8.6582 69.6879 8.79786 69.9672 9.07717C70.2587 9.34434 70.4044 9.70258 70.4044 10.1519C70.4044 10.6012 70.2587 10.9656 69.9672 11.2449C69.6879 11.512 69.3114 11.6456 68.8378 11.6456ZM67.5991 12.5018H70.0765V21.5916H67.5991V12.5018ZM76.0347 21.7373C75.2697 21.7373 74.5896 21.5855 73.9945 21.2819C73.4116 20.9783 72.9562 20.5533 72.6283 20.0068C72.3126 19.4603 72.1547 18.8288 72.1547 18.1123V15.981C72.1547 15.2646 72.3126 14.6331 72.6283 14.0866C72.9562 13.5401 73.4116 13.1151 73.9945 12.8115C74.5774 12.5078 75.2514 12.3561 76.0165 12.3561H77.4556C78.1842 12.3561 78.8278 12.5018 79.3865 12.7932C79.9451 13.0847 80.3762 13.4976 80.6798 14.0319C80.9834 14.5541 81.1352 15.1613 81.1352 15.8535H78.676C78.676 15.4406 78.5607 15.1127 78.3299 14.8699C78.1113 14.6148 77.8199 14.4873 77.4556 14.4873H76.0529C75.6279 14.4873 75.2818 14.6452 75.0146 14.9609C74.7596 15.2646 74.6321 15.6653 74.6321 16.1632V17.9301C74.6321 18.428 74.7657 18.8349 75.0328 19.1506C75.3 19.4542 75.6461 19.606 76.0712 19.606H77.4738C77.8624 19.606 78.172 19.4663 78.4028 19.1871C78.6457 18.9078 78.7671 18.5373 78.7671 18.0759H81.2263C81.2263 19.181 80.8802 20.0675 80.188 20.7354C79.5079 21.4034 78.6032 21.7373 77.4738 21.7373H76.0347ZM82.7122 8.84036H85.1896V13.4126C85.4567 13.0969 85.7846 12.8418 86.1733 12.6475C86.574 12.4532 86.9565 12.3561 87.3209 12.3561H88.4503C89.4213 12.3561 90.1988 12.6597 90.7817 13.2669C91.3771 13.874 91.6743 14.6755 91.6743 15.6714V21.5916H89.1969V15.7624C89.1969 15.386 89.0934 15.0824 88.8873 14.8516C88.6927 14.6209 88.4381 14.5055 88.1224 14.5055H86.993C86.5679 14.5055 86.1853 14.6634 85.8454 14.9792C85.5175 15.2828 85.2989 15.6835 85.1896 16.1814V21.5916H82.7122V8.84036ZM97.1863 21.7373C96.4212 21.7373 95.7406 21.5916 95.1461 21.3001C94.5632 20.9965 94.1078 20.5715 93.7799 20.025C93.4636 19.4785 93.3063 18.847 93.3063 18.1305V15.9993C93.3063 15.2828 93.4703 14.6513 93.7981 14.1048C94.126 13.5461 94.5814 13.1151 95.1643 12.8115C95.7588 12.5078 96.4395 12.3561 97.2045 12.3561H98.844C99.609 12.3561 100.283 12.5078 100.866 12.8115C101.46 13.1151 101.922 13.5461 102.25 14.1048C102.578 14.6513 102.742 15.2828 102.742 15.9993V18.1305C102.742 18.847 102.578 19.4785 102.25 20.025C101.922 20.5715 101.46 20.9965 100.866 21.3001C100.283 21.5916 99.6024 21.7373 98.8258 21.7373H97.1863ZM98.7893 19.606C99.2381 19.606 99.5966 19.4542 99.8641 19.1506C100.131 18.8349 100.265 18.428 100.265 17.9301V16.1632C100.265 15.6653 100.131 15.2646 99.8641 14.9609C99.5966 14.6452 99.2447 14.4873 98.8075 14.4873H97.241C96.8038 14.4873 96.4511 14.6452 96.1844 14.9609C95.917 15.2646 95.7837 15.6653 95.7837 16.1632V17.9301C95.7837 18.428 95.917 18.8349 96.1844 19.1506C96.4511 19.4542 96.7972 19.606 97.2228 19.606H98.7893ZM107.71 21.7373C106.605 21.7373 105.719 21.4458 105.051 20.8629C104.382 20.28 104.049 19.5149 104.049 18.5677H106.49C106.49 18.8956 106.599 19.1628 106.818 19.3692C107.049 19.5635 107.346 19.6607 107.71 19.6607H109.35C110.078 19.6607 110.443 19.4603 110.443 19.0595V18.7499C110.443 18.6284 110.382 18.5191 110.26 18.422C110.139 18.3127 109.975 18.2398 109.769 18.2034L106.617 17.6569C105.876 17.5354 105.287 17.2744 104.85 16.8736C104.426 16.4607 104.213 15.981 104.213 15.4346V14.8334C104.213 14.0562 104.528 13.449 105.16 13.0118C105.803 12.5746 106.696 12.3561 107.838 12.3561H109.259C110.279 12.3561 111.098 12.6293 111.718 13.1758C112.349 13.7101 112.665 14.4205 112.665 15.307H110.224C110.224 15.0398 110.133 14.8274 109.951 14.6695C109.781 14.5116 109.55 14.4327 109.259 14.4327H107.874C107.085 14.4327 106.69 14.6148 106.69 14.9792V15.2706C106.69 15.4042 106.739 15.5196 106.836 15.6167C106.945 15.7018 107.097 15.7624 107.291 15.7989L110.607 16.4C111.299 16.5215 111.858 16.7825 112.282 17.1833C112.707 17.5719 112.92 18.0152 112.92 18.5131V19.1688C112.92 19.9582 112.592 20.5836 111.936 21.0451C111.293 21.5065 110.43 21.7373 109.35 21.7373H107.71ZM118.348 21.5916C117.279 21.5916 116.496 21.3487 115.998 20.8629C115.5 20.3771 115.251 19.6242 115.251 18.6041V14.6148H113.648V12.5018H115.324V9.75116H117.728V12.5018H120.096V14.6148H117.728V18.4948C117.728 18.8349 117.789 19.0838 117.91 19.2417C118.044 19.3996 118.251 19.4785 118.53 19.4785H120.096V21.5916H118.348Z" fill="#D7D7D7"/>
<path fill-rule="evenodd" clip-rule="evenodd" d="M21.234 10.014C20.2493 9.45199 19.2647 9.17097 18.28 9.17097C15.52 9.17097 12.76 11.379 10 15.795C10.7642 17.0177 11.5284 18.0711 12.2926 18.9554L13.4657 17.7823C13.0319 17.2723 12.5918 16.6949 12.146 16.0486L11.9723 15.7941L12.146 15.5414C14.3563 12.3366 16.4283 10.827 18.28 10.827L18.4348 10.8305C18.9431 10.8534 19.4678 10.989 20.007 11.2411L21.234 10.014ZM16.8918 16.6982L19.1832 14.4067C19.6364 14.7022 19.936 15.2136 19.936 15.795C19.936 16.7096 19.1946 17.451 18.28 17.451C17.6987 17.451 17.1872 17.1514 16.8918 16.6982ZM14.6069 18.983C15.8446 20.1305 17.023 20.7098 18.1252 20.7595L18.28 20.763C20.1317 20.763 22.2037 19.2534 24.414 16.0486L24.5869 15.7941L24.414 15.5414C23.3882 14.0539 22.3921 12.9317 21.4339 12.156L22.6086 10.9813C23.9257 12.083 25.2429 13.6875 26.56 15.795C23.8 20.2109 21.04 22.419 18.28 22.419C16.6656 22.419 15.0514 21.6636 13.4371 20.1529L14.6069 18.983Z" fill="#D7D7D7"/>
<path fill-rule="evenodd" clip-rule="evenodd" d="M26.075 9.17097L11.656 23.5899L10.485 22.419L24.904 8L26.075 9.17097Z" fill="#D7D7D7"/>
<path d="M148.105 20.5C147.243 20.5 146.609 20.2903 146.201 19.871C145.804 19.4517 145.606 18.8453 145.606 18.052V7.92H148.122V18.545H149.244V20.5H148.105ZM154.373 20.704C153.716 20.704 153.126 20.5963 152.605 20.381C152.095 20.1657 151.659 19.854 151.296 19.446C150.945 19.038 150.673 18.545 150.48 17.967C150.287 17.389 150.191 16.743 150.191 16.029C150.191 15.315 150.287 14.669 150.48 14.091C150.673 13.513 150.945 13.0257 151.296 12.629C151.659 12.221 152.095 11.9093 152.605 11.694C153.126 11.4787 153.716 11.371 154.373 11.371C155.03 11.371 155.614 11.4787 156.124 11.694C156.645 11.9093 157.082 12.221 157.433 12.629C157.796 13.0257 158.073 13.513 158.266 14.091C158.459 14.669 158.555 15.315 158.555 16.029C158.555 16.743 158.459 17.389 158.266 17.967C158.073 18.545 157.796 19.038 157.433 19.446C157.082 19.854 156.645 20.1657 156.124 20.381C155.614 20.5963 155.03 20.704 154.373 20.704ZM154.373 18.715C154.872 18.715 155.257 18.562 155.529 18.256C155.801 17.95 155.937 17.5137 155.937 16.947V15.128C155.937 14.5613 155.801 14.125 155.529 13.819C155.257 13.513 154.872 13.36 154.373 13.36C153.874 13.36 153.489 13.513 153.217 13.819C152.945 14.125 152.809 14.5613 152.809 15.128V16.947C152.809 17.5137 152.945 17.95 153.217 18.256C153.489 18.562 153.874 18.715 154.373 18.715ZM166.944 20.5C166.49 20.5 166.111 20.3583 165.805 20.075C165.51 19.7917 165.323 19.412 165.244 18.936H165.142C165.006 19.514 164.705 19.956 164.241 20.262C163.776 20.5567 163.204 20.704 162.524 20.704C161.628 20.704 160.943 20.466 160.467 19.99C159.991 19.514 159.753 18.885 159.753 18.103C159.753 17.1623 160.093 16.4653 160.773 16.012C161.464 15.5473 162.399 15.315 163.578 15.315H164.989V14.754C164.989 14.3233 164.875 13.9833 164.649 13.734C164.422 13.4733 164.042 13.343 163.51 13.343C163.011 13.343 162.614 13.4507 162.32 13.666C162.025 13.8813 161.781 14.125 161.589 14.397L160.093 13.071C160.455 12.5383 160.909 12.1247 161.453 11.83C162.008 11.524 162.756 11.371 163.697 11.371C164.966 11.371 165.918 11.6487 166.553 12.204C167.187 12.7593 167.505 13.5697 167.505 14.635V18.545H168.338V20.5H166.944ZM163.459 18.953C163.878 18.953 164.235 18.8623 164.53 18.681C164.836 18.4997 164.989 18.205 164.989 17.797V16.743H163.765C162.779 16.743 162.286 17.0773 162.286 17.746V18.001C162.286 18.3297 162.388 18.5733 162.592 18.732C162.796 18.8793 163.085 18.953 163.459 18.953ZM175.501 19.004H175.416C175.348 19.242 175.24 19.4687 175.093 19.684C174.945 19.888 174.764 20.0693 174.549 20.228C174.345 20.3753 174.107 20.4887 173.835 20.568C173.574 20.6587 173.302 20.704 173.019 20.704C171.885 20.704 171.03 20.3073 170.452 19.514C169.874 18.7093 169.585 17.5477 169.585 16.029C169.585 14.5103 169.874 13.3543 170.452 12.561C171.03 11.7677 171.885 11.371 173.019 11.371C173.597 11.371 174.107 11.5297 174.549 11.847C175.002 12.1643 175.291 12.5723 175.416 13.071H175.501V7.92H178.017V20.5H175.501V19.004ZM173.852 18.664C174.328 18.664 174.719 18.5507 175.025 18.324C175.342 18.086 175.501 17.763 175.501 17.355V14.72C175.501 14.312 175.342 13.9947 175.025 13.768C174.719 13.53 174.328 13.411 173.852 13.411C173.376 13.411 172.979 13.581 172.662 13.921C172.356 14.2497 172.203 14.6973 172.203 15.264V16.811C172.203 17.3777 172.356 17.831 172.662 18.171C172.979 18.4997 173.376 18.664 173.852 18.664ZM181.627 10.623C181.117 10.623 180.743 10.5097 180.505 10.283C180.279 10.045 180.165 9.74467 180.165 9.382V9.008C180.165 8.64533 180.279 8.35067 180.505 8.124C180.743 7.886 181.117 7.767 181.627 7.767C182.137 7.767 182.506 7.886 182.732 8.124C182.97 8.35067 183.089 8.64533 183.089 9.008V9.382C183.089 9.74467 182.97 10.045 182.732 10.283C182.506 10.5097 182.137 10.623 181.627 10.623ZM180.369 11.575H182.885V20.5H180.369V11.575ZM185.234 20.5V11.575H187.75V13.088H187.852C188.01 12.6233 188.288 12.221 188.685 11.881C189.081 11.541 189.631 11.371 190.334 11.371C191.252 11.371 191.943 11.677 192.408 12.289C192.884 12.901 193.122 13.7737 193.122 14.907V20.5H190.606V15.111C190.606 14.533 190.515 14.108 190.334 13.836C190.152 13.5527 189.829 13.411 189.365 13.411C189.161 13.411 188.962 13.4393 188.77 13.496C188.577 13.5413 188.401 13.6207 188.243 13.734C188.095 13.8473 187.976 13.989 187.886 14.159C187.795 14.3177 187.75 14.5047 187.75 14.72V20.5H185.234ZM203.623 21.146C203.623 21.622 203.538 22.0413 203.368 22.404C203.209 22.7667 202.943 23.0727 202.569 23.322C202.195 23.5827 201.696 23.7753 201.073 23.9C200.461 24.036 199.701 24.104 198.795 24.104C198.024 24.104 197.367 24.053 196.823 23.951C196.29 23.8603 195.854 23.7243 195.514 23.543C195.185 23.373 194.941 23.1577 194.783 22.897C194.635 22.6477 194.562 22.3587 194.562 22.03C194.562 21.5313 194.709 21.1403 195.004 20.857C195.298 20.5737 195.706 20.398 196.228 20.33V20.143C195.797 20.0637 195.474 19.8823 195.259 19.599C195.043 19.3043 194.936 18.9643 194.936 18.579C194.936 18.341 194.981 18.137 195.072 17.967C195.174 17.7857 195.298 17.6327 195.446 17.508C195.604 17.372 195.786 17.2643 195.99 17.185C196.194 17.1057 196.398 17.0433 196.602 16.998V16.93C196.058 16.6807 195.655 16.3407 195.395 15.91C195.134 15.468 195.004 14.958 195.004 14.38C195.004 13.4733 195.315 12.748 195.939 12.204C196.573 11.6487 197.537 11.371 198.829 11.371C199.418 11.371 199.922 11.4277 200.342 11.541V11.201C200.342 10.725 200.455 10.385 200.682 10.181C200.92 9.96567 201.254 9.858 201.685 9.858H203.096V11.728H201.124V11.83C201.645 12.0793 202.03 12.425 202.28 12.867C202.529 13.2977 202.654 13.802 202.654 14.38C202.654 15.2753 202.336 15.995 201.702 16.539C201.078 17.0717 200.121 17.338 198.829 17.338C198.251 17.338 197.724 17.2757 197.248 17.151C196.987 17.321 196.857 17.559 196.857 17.865C196.857 18.0803 196.936 18.2503 197.095 18.375C197.265 18.4883 197.542 18.545 197.928 18.545H200.512C201.6 18.545 202.387 18.7717 202.875 19.225C203.373 19.6783 203.623 20.3187 203.623 21.146ZM201.26 21.486C201.26 21.2253 201.158 21.027 200.954 20.891C200.75 20.755 200.393 20.687 199.883 20.687H196.823C196.709 20.8003 196.624 20.925 196.568 21.061C196.522 21.2083 196.5 21.35 196.5 21.486C196.5 21.8147 196.641 22.0527 196.925 22.2C197.208 22.3587 197.69 22.438 198.37 22.438H199.39C200.07 22.438 200.551 22.3587 200.835 22.2C201.118 22.0527 201.26 21.8147 201.26 21.486ZM198.829 15.689C199.327 15.689 199.696 15.587 199.934 15.383C200.183 15.1677 200.308 14.8617 200.308 14.465V14.261C200.308 13.8643 200.183 13.564 199.934 13.36C199.696 13.1447 199.327 13.037 198.829 13.037C198.33 13.037 197.956 13.1447 197.707 13.36C197.469 13.564 197.35 13.8643 197.35 14.261V14.465C197.35 14.8617 197.469 15.1677 197.707 15.383C197.956 15.587 198.33 15.689 198.829 15.689Z" fill="black"/>
</g>
<defs>
<clipPath id="clip0_713_44">
<rect width="220" height="30" fill="white"/>
</clipPath>
</defs>
</svg>
