<svg width="220" height="30" viewBox="0 0 220 30" fill="none" xmlns="http://www.w3.org/2000/svg">
<g clip-path="url(#clip0_713_24)">
<path d="M0 8C0 3.58172 3.25611 0 7.27273 0H130V30H7.27273C3.25612 30 0 26.4183 0 22V8Z" fill="#1B7C12"/>
<path d="M220 8C220 3.58172 216.418 0 212 0H130V30H212C216.418 30 220 26.4183 220 22V8Z" fill="#BCF7B3"/>
<path d="M35.2376 21.7368C34.1325 21.7368 33.246 21.4453 32.5781 20.8624C31.9101 20.2795 31.5762 19.5145 31.5762 18.5672H34.0171C34.0171 18.8951 34.1264 19.1623 34.345 19.3687C34.5758 19.5631 34.8733 19.6602 35.2376 19.6602H36.877C37.6057 19.6602 37.97 19.4598 37.97 19.0591V18.7494C37.97 18.6279 37.9093 18.5186 37.7878 18.4215C37.6664 18.3122 37.5024 18.2393 37.296 18.2029L34.1446 17.6564C33.4038 17.535 32.8149 17.2739 32.3777 16.8731C31.9527 16.4602 31.7401 15.9805 31.7401 15.4341V14.8329C31.7401 14.0557 32.0558 13.4485 32.6873 13.0113C33.331 12.5742 34.2235 12.3556 35.3651 12.3556H36.7859C37.806 12.3556 38.6258 12.6288 39.2451 13.1753C39.8766 13.7096 40.1923 14.42 40.1923 15.3066H37.7514C37.7514 15.0394 37.6603 14.8269 37.4782 14.669C37.3082 14.5111 37.0774 14.4322 36.7859 14.4322H35.4015C34.6122 14.4322 34.2175 14.6143 34.2175 14.9787V15.2701C34.2175 15.4037 34.2661 15.5191 34.3632 15.6162C34.4725 15.7013 34.6243 15.762 34.8186 15.7984L38.1339 16.3995C38.8261 16.521 39.3848 16.7821 39.8098 17.1828C40.2348 17.5714 40.4474 18.0147 40.4474 18.5126V19.1683C40.4474 19.9577 40.1195 20.5832 39.4637 21.0446C38.8201 21.506 37.9578 21.7368 36.877 21.7368H35.2376ZM45.8752 21.5911C44.8065 21.5911 44.0232 21.3482 43.5253 20.8624C43.0274 20.3766 42.7784 19.6237 42.7784 18.6037V14.6143H41.1754V12.5013H42.8513V9.75067H45.2558V12.5013H47.6239V14.6143H45.2558V18.4944C45.2558 18.8344 45.3165 19.0833 45.438 19.2412C45.5715 19.3991 45.778 19.478 46.0573 19.478H47.6239V21.5911H45.8752ZM52.0401 21.7368C51.0929 21.7368 50.3278 21.5 49.7449 21.0264C49.162 20.5528 48.8705 19.9274 48.8705 19.1501V18.4761C48.8705 17.7111 49.1742 17.0978 49.7813 16.6363C50.3886 16.1627 51.1901 15.9259 52.1858 15.9259H53.297C53.6128 15.9259 53.9528 15.9684 54.3171 16.0534C54.6814 16.1384 55.0154 16.2538 55.319 16.3995V15.4523C55.319 15.1487 55.2158 14.9058 55.0093 14.7236C54.8151 14.5293 54.5539 14.4322 54.226 14.4322H52.6595C52.3195 14.4322 52.0462 14.5111 51.8397 14.669C51.6333 14.8269 51.5301 15.0394 51.5301 15.3066H49.1256C49.1256 14.42 49.4474 13.7096 50.091 13.1753C50.7468 12.6288 51.6029 12.3556 52.6595 12.3556H54.226C55.2947 12.3556 56.1569 12.641 56.8127 13.2117C57.4685 13.7704 57.7964 14.5172 57.7964 15.4523V21.5911H55.5012V20.4981C55.2097 20.8746 54.8515 21.1782 54.4264 21.4089C54.0014 21.6275 53.5824 21.7368 53.1695 21.7368H52.0401ZM53.3517 19.8423C53.801 19.8423 54.2018 19.727 54.5539 19.4962C54.9062 19.2655 55.1612 18.9558 55.319 18.5672V18.2575C55.1247 18.1118 54.8515 17.9965 54.4993 17.9114C54.1593 17.8264 53.795 17.7839 53.4063 17.7839H52.2587C51.9672 17.7839 51.7304 17.8568 51.5483 18.0025C51.3661 18.1483 51.275 18.3426 51.275 18.5854V19.0591C51.275 19.2898 51.3722 19.478 51.5665 19.6237C51.773 19.7695 52.0401 19.8423 52.368 19.8423H53.3517ZM63.771 21.5911C62.7023 21.5911 61.919 21.3482 61.4211 20.8624C60.9232 20.3766 60.6742 19.6237 60.6742 18.6037V14.6143H59.0712V12.5013H60.7471V9.75067H63.1516V12.5013H65.5197V14.6143H63.1516V18.4944C63.1516 18.8344 63.2123 19.0833 63.3338 19.2412C63.4673 19.3991 63.6738 19.478 63.9531 19.478H65.5197V21.5911H63.771ZM68.8378 11.6451C68.3642 11.6451 67.9817 11.5116 67.6902 11.2444C67.4109 10.9651 67.2713 10.6008 67.2713 10.1514C67.2713 9.7021 67.4109 9.34385 67.6902 9.07668C67.9817 8.79737 68.3642 8.65771 68.8378 8.65771C69.3114 8.65771 69.6879 8.79737 69.9672 9.07668C70.2587 9.34385 70.4044 9.7021 70.4044 10.1514C70.4044 10.6008 70.2587 10.9651 69.9672 11.2444C69.6879 11.5116 69.3114 11.6451 68.8378 11.6451ZM67.5991 12.5013H70.0765V21.5911H67.5991V12.5013ZM76.0347 21.7368C75.2697 21.7368 74.5896 21.585 73.9945 21.2814C73.4116 20.9778 72.9562 20.5528 72.6283 20.0063C72.3126 19.4598 72.1547 18.8283 72.1547 18.1118V15.9805C72.1547 15.2641 72.3126 14.6326 72.6283 14.0861C72.9562 13.5396 73.4116 13.1146 73.9945 12.811C74.5774 12.5073 75.2514 12.3556 76.0165 12.3556H77.4556C78.1842 12.3556 78.8278 12.5013 79.3865 12.7927C79.9451 13.0842 80.3762 13.4971 80.6798 14.0314C80.9834 14.5537 81.1352 15.1608 81.1352 15.853H78.676C78.676 15.4401 78.5607 15.1122 78.3299 14.8694C78.1113 14.6143 77.8199 14.4868 77.4556 14.4868H76.0529C75.6279 14.4868 75.2818 14.6447 75.0146 14.9605C74.7596 15.2641 74.6321 15.6648 74.6321 16.1627V17.9297C74.6321 18.4275 74.7657 18.8344 75.0328 19.1501C75.3 19.4538 75.6461 19.6055 76.0712 19.6055H77.4738C77.8624 19.6055 78.172 19.4658 78.4028 19.1866C78.6457 18.9073 78.7671 18.5368 78.7671 18.0754H81.2263C81.2263 19.1805 80.8802 20.067 80.188 20.7349C79.5079 21.4029 78.6032 21.7368 77.4738 21.7368H76.0347ZM82.7122 8.83987H85.1896V13.4121C85.4567 13.0964 85.7846 12.8414 86.1733 12.647C86.574 12.4527 86.9565 12.3556 87.3209 12.3556H88.4503C89.4213 12.3556 90.1988 12.6592 90.7817 13.2664C91.3771 13.8735 91.6743 14.675 91.6743 15.6709V21.5911H89.1969V15.762C89.1969 15.3855 89.0934 15.0819 88.8873 14.8512C88.6927 14.6204 88.4381 14.5051 88.1224 14.5051H86.993C86.5679 14.5051 86.1853 14.663 85.8454 14.9787C85.5175 15.2823 85.2989 15.683 85.1896 16.1809V21.5911H82.7122V8.83987ZM97.1863 21.7368C96.4212 21.7368 95.7406 21.5911 95.1461 21.2996C94.5632 20.996 94.1078 20.571 93.7799 20.0245C93.4636 19.478 93.3063 18.8465 93.3063 18.13V15.9988C93.3063 15.2823 93.4703 14.6508 93.7981 14.1043C94.126 13.5456 94.5814 13.1146 95.1643 12.811C95.7588 12.5073 96.4395 12.3556 97.2045 12.3556H98.844C99.609 12.3556 100.283 12.5073 100.866 12.811C101.46 13.1146 101.922 13.5456 102.25 14.1043C102.578 14.6508 102.742 15.2823 102.742 15.9988V18.13C102.742 18.8465 102.578 19.478 102.25 20.0245C101.922 20.571 101.46 20.996 100.866 21.2996C100.283 21.5911 99.6024 21.7368 98.8258 21.7368H97.1863ZM98.7893 19.6055C99.2381 19.6055 99.5966 19.4538 99.8641 19.1501C100.131 18.8344 100.265 18.4275 100.265 17.9297V16.1627C100.265 15.6648 100.131 15.2641 99.8641 14.9605C99.5966 14.6447 99.2447 14.4868 98.8075 14.4868H97.241C96.8038 14.4868 96.4511 14.6447 96.1844 14.9605C95.917 15.2641 95.7837 15.6648 95.7837 16.1627V17.9297C95.7837 18.4275 95.917 18.8344 96.1844 19.1501C96.4511 19.4538 96.7972 19.6055 97.2228 19.6055H98.7893ZM107.71 21.7368C106.605 21.7368 105.719 21.4453 105.051 20.8624C104.382 20.2795 104.049 19.5145 104.049 18.5672H106.49C106.49 18.8951 106.599 19.1623 106.818 19.3687C107.049 19.5631 107.346 19.6602 107.71 19.6602H109.35C110.078 19.6602 110.443 19.4598 110.443 19.0591V18.7494C110.443 18.6279 110.382 18.5186 110.26 18.4215C110.139 18.3122 109.975 18.2393 109.769 18.2029L106.617 17.6564C105.876 17.535 105.287 17.2739 104.85 16.8731C104.426 16.4602 104.213 15.9805 104.213 15.4341V14.8329C104.213 14.0557 104.528 13.4485 105.16 13.0113C105.803 12.5742 106.696 12.3556 107.838 12.3556H109.259C110.279 12.3556 111.098 12.6288 111.718 13.1753C112.349 13.7096 112.665 14.42 112.665 15.3066H110.224C110.224 15.0394 110.133 14.8269 109.951 14.669C109.781 14.5111 109.55 14.4322 109.259 14.4322H107.874C107.085 14.4322 106.69 14.6143 106.69 14.9787V15.2701C106.69 15.4037 106.739 15.5191 106.836 15.6162C106.945 15.7013 107.097 15.762 107.291 15.7984L110.607 16.3995C111.299 16.521 111.858 16.7821 112.282 17.1828C112.707 17.5714 112.92 18.0147 112.92 18.5126V19.1683C112.92 19.9577 112.592 20.5832 111.936 21.0446C111.293 21.506 110.43 21.7368 109.35 21.7368H107.71ZM118.348 21.5911C117.279 21.5911 116.496 21.3482 115.998 20.8624C115.5 20.3766 115.251 19.6237 115.251 18.6037V14.6143H113.648V12.5013H115.324V9.75067H117.728V12.5013H120.096V14.6143H117.728V18.4944C117.728 18.8344 117.789 19.0833 117.91 19.2412C118.044 19.3991 118.251 19.478 118.53 19.478H120.096V21.5911H118.348Z" fill="#BCF7B3"/>
<path fill-rule="evenodd" clip-rule="evenodd" d="M21.234 10.014C20.2493 9.45199 19.2647 9.17097 18.28 9.17097C15.52 9.17097 12.76 11.379 10 15.795C10.7642 17.0177 11.5284 18.0711 12.2926 18.9554L13.4657 17.7823C13.0319 17.2723 12.5918 16.6949 12.146 16.0486L11.9723 15.7941L12.146 15.5414C14.3563 12.3366 16.4283 10.827 18.28 10.827L18.4348 10.8305C18.9431 10.8534 19.4678 10.989 20.007 11.2411L21.234 10.014ZM16.8918 16.6982L19.1832 14.4067C19.6364 14.7022 19.936 15.2136 19.936 15.795C19.936 16.7096 19.1946 17.451 18.28 17.451C17.6987 17.451 17.1872 17.1514 16.8918 16.6982ZM14.6069 18.983C15.8446 20.1305 17.023 20.7098 18.1252 20.7595L18.28 20.763C20.1317 20.763 22.2037 19.2534 24.414 16.0486L24.5869 15.7941L24.414 15.5414C23.3882 14.0539 22.3921 12.9317 21.4339 12.156L22.6086 10.9813C23.9257 12.083 25.2429 13.6875 26.56 15.795C23.8 20.2109 21.04 22.419 18.28 22.419C16.6656 22.419 15.0514 21.6636 13.4371 20.1529L14.6069 18.983Z" fill="#BCF7B3"/>
<path fill-rule="evenodd" clip-rule="evenodd" d="M26.075 9.17097L11.656 23.5899L10.485 22.419L24.904 8L26.075 9.17097Z" fill="#BCF7B3"/>
<path d="M147.372 20.704C146.511 20.704 145.785 20.568 145.196 20.296C144.607 20.0127 144.08 19.616 143.615 19.106L145.094 17.61C145.411 17.9613 145.763 18.239 146.148 18.443C146.533 18.647 146.97 18.749 147.457 18.749C147.956 18.749 148.301 18.6753 148.494 18.528C148.687 18.3693 148.783 18.1597 148.783 17.899C148.783 17.4797 148.483 17.2303 147.882 17.151L146.913 17.032C144.907 16.7827 143.904 15.8647 143.904 14.278C143.904 13.8473 143.983 13.4563 144.142 13.105C144.312 12.7423 144.544 12.4363 144.839 12.187C145.145 11.9263 145.508 11.728 145.927 11.592C146.358 11.4447 146.839 11.371 147.372 11.371C147.837 11.371 148.245 11.405 148.596 11.473C148.959 11.5297 149.276 11.6203 149.548 11.745C149.831 11.8583 150.086 12.0057 150.313 12.187C150.551 12.357 150.783 12.5497 151.01 12.765L149.565 14.244C149.282 13.9607 148.959 13.7397 148.596 13.581C148.245 13.411 147.882 13.326 147.508 13.326C147.077 13.326 146.771 13.394 146.59 13.53C146.409 13.666 146.318 13.8473 146.318 14.074C146.318 14.312 146.38 14.499 146.505 14.635C146.641 14.7597 146.89 14.8503 147.253 14.907L148.256 15.043C150.217 15.3037 151.197 16.199 151.197 17.729C151.197 18.1597 151.106 18.5563 150.925 18.919C150.744 19.2817 150.483 19.599 150.143 19.871C149.814 20.1317 149.412 20.3357 148.936 20.483C148.471 20.6303 147.95 20.704 147.372 20.704ZM158.182 19.004H158.097C158.018 19.2307 157.91 19.446 157.774 19.65C157.65 19.854 157.485 20.0353 157.281 20.194C157.077 20.3527 156.834 20.4773 156.55 20.568C156.278 20.6587 155.961 20.704 155.598 20.704C154.68 20.704 153.983 20.4037 153.507 19.803C153.043 19.191 152.81 18.3183 152.81 17.185V11.575H155.326V16.964C155.326 17.508 155.423 17.9273 155.615 18.222C155.808 18.5167 156.137 18.664 156.601 18.664C156.794 18.664 156.987 18.6357 157.179 18.579C157.372 18.5223 157.542 18.443 157.689 18.341C157.837 18.2277 157.956 18.0917 158.046 17.933C158.137 17.7743 158.182 17.5873 158.182 17.372V11.575H160.698V20.5H158.182V19.004ZM166.643 20.704C165.975 20.704 165.38 20.5963 164.858 20.381C164.337 20.1543 163.901 19.8427 163.549 19.446C163.198 19.038 162.932 18.545 162.75 17.967C162.569 17.389 162.478 16.743 162.478 16.029C162.478 15.315 162.569 14.6747 162.75 14.108C162.932 13.53 163.198 13.037 163.549 12.629C163.901 12.221 164.337 11.9093 164.858 11.694C165.38 11.4787 165.975 11.371 166.643 11.371C167.55 11.371 168.304 11.575 168.904 11.983C169.516 12.391 169.953 12.9633 170.213 13.7L168.173 14.584C168.094 14.244 167.93 13.955 167.68 13.717C167.431 13.479 167.085 13.36 166.643 13.36C166.133 13.36 165.748 13.53 165.487 13.87C165.227 14.1987 165.096 14.6463 165.096 15.213V16.879C165.096 17.4457 165.227 17.8933 165.487 18.222C165.748 18.5507 166.133 18.715 166.643 18.715C167.097 18.715 167.454 18.596 167.714 18.358C167.986 18.1087 168.185 17.7857 168.309 17.389L170.264 18.239C169.97 19.089 169.511 19.7123 168.887 20.109C168.275 20.5057 167.527 20.704 166.643 20.704ZM175.342 20.704C174.674 20.704 174.079 20.5963 173.557 20.381C173.036 20.1543 172.6 19.8427 172.248 19.446C171.897 19.038 171.631 18.545 171.449 17.967C171.268 17.389 171.177 16.743 171.177 16.029C171.177 15.315 171.268 14.6747 171.449 14.108C171.631 13.53 171.897 13.037 172.248 12.629C172.6 12.221 173.036 11.9093 173.557 11.694C174.079 11.4787 174.674 11.371 175.342 11.371C176.249 11.371 177.003 11.575 177.603 11.983C178.215 12.391 178.652 12.9633 178.912 13.7L176.872 14.584C176.793 14.244 176.629 13.955 176.379 13.717C176.13 13.479 175.784 13.36 175.342 13.36C174.832 13.36 174.447 13.53 174.186 13.87C173.926 14.1987 173.795 14.6463 173.795 15.213V16.879C173.795 17.4457 173.926 17.8933 174.186 18.222C174.447 18.5507 174.832 18.715 175.342 18.715C175.796 18.715 176.153 18.596 176.413 18.358C176.685 18.1087 176.884 17.7857 177.008 17.389L178.963 18.239C178.669 19.089 178.21 19.7123 177.586 20.109C176.974 20.5057 176.226 20.704 175.342 20.704ZM184.161 20.704C183.481 20.704 182.874 20.5963 182.342 20.381C181.809 20.1543 181.356 19.8427 180.982 19.446C180.619 19.038 180.341 18.545 180.149 17.967C179.967 17.389 179.877 16.743 179.877 16.029C179.877 15.3263 179.967 14.6917 180.149 14.125C180.33 13.547 180.596 13.054 180.948 12.646C181.31 12.238 181.752 11.9263 182.274 11.711C182.795 11.4843 183.39 11.371 184.059 11.371C184.795 11.371 185.424 11.4957 185.946 11.745C186.478 11.9943 186.909 12.3287 187.238 12.748C187.578 13.1673 187.821 13.6547 187.969 14.21C188.127 14.754 188.207 15.3263 188.207 15.927V16.675H182.478V16.811C182.478 17.4003 182.636 17.8707 182.954 18.222C183.271 18.562 183.77 18.732 184.45 18.732C184.971 18.732 185.396 18.63 185.725 18.426C186.053 18.2107 186.359 17.9557 186.643 17.661L187.901 19.225C187.504 19.6897 186.983 20.0523 186.337 20.313C185.702 20.5737 184.977 20.704 184.161 20.704ZM184.11 13.224C183.6 13.224 183.197 13.394 182.903 13.734C182.619 14.0627 182.478 14.5047 182.478 15.06V15.196H185.606V15.043C185.606 14.499 185.481 14.0627 185.232 13.734C184.994 13.394 184.62 13.224 184.11 13.224ZM193.01 20.704C192.148 20.704 191.423 20.568 190.834 20.296C190.244 20.0127 189.717 19.616 189.253 19.106L190.732 17.61C191.049 17.9613 191.4 18.239 191.786 18.443C192.171 18.647 192.607 18.749 193.095 18.749C193.593 18.749 193.939 18.6753 194.132 18.528C194.324 18.3693 194.421 18.1597 194.421 17.899C194.421 17.4797 194.12 17.2303 193.52 17.151L192.551 17.032C190.545 16.7827 189.542 15.8647 189.542 14.278C189.542 13.8473 189.621 13.4563 189.78 13.105C189.95 12.7423 190.182 12.4363 190.477 12.187C190.783 11.9263 191.145 11.728 191.565 11.592C191.995 11.4447 192.477 11.371 193.01 11.371C193.474 11.371 193.882 11.405 194.234 11.473C194.596 11.5297 194.914 11.6203 195.186 11.745C195.469 11.8583 195.724 12.0057 195.951 12.187C196.189 12.357 196.421 12.5497 196.648 12.765L195.203 14.244C194.919 13.9607 194.596 13.7397 194.234 13.581C193.882 13.411 193.52 13.326 193.146 13.326C192.715 13.326 192.409 13.394 192.228 13.53C192.046 13.666 191.956 13.8473 191.956 14.074C191.956 14.312 192.018 14.499 192.143 14.635C192.279 14.7597 192.528 14.8503 192.891 14.907L193.894 15.043C195.854 15.3037 196.835 16.199 196.835 17.729C196.835 18.1597 196.744 18.5563 196.563 18.919C196.381 19.2817 196.121 19.599 195.781 19.871C195.452 20.1317 195.05 20.3357 194.574 20.483C194.109 20.6303 193.588 20.704 193.01 20.704ZM201.46 20.704C200.598 20.704 199.873 20.568 199.284 20.296C198.694 20.0127 198.167 19.616 197.703 19.106L199.182 17.61C199.499 17.9613 199.85 18.239 200.236 18.443C200.621 18.647 201.057 18.749 201.545 18.749C202.043 18.749 202.389 18.6753 202.582 18.528C202.774 18.3693 202.871 18.1597 202.871 17.899C202.871 17.4797 202.57 17.2303 201.97 17.151L201.001 17.032C198.995 16.7827 197.992 15.8647 197.992 14.278C197.992 13.8473 198.071 13.4563 198.23 13.105C198.4 12.7423 198.632 12.4363 198.927 12.187C199.233 11.9263 199.595 11.728 200.015 11.592C200.445 11.4447 200.927 11.371 201.46 11.371C201.924 11.371 202.332 11.405 202.684 11.473C203.046 11.5297 203.364 11.6203 203.636 11.745C203.919 11.8583 204.174 12.0057 204.401 12.187C204.639 12.357 204.871 12.5497 205.098 12.765L203.653 14.244C203.369 13.9607 203.046 13.7397 202.684 13.581C202.332 13.411 201.97 13.326 201.596 13.326C201.165 13.326 200.859 13.394 200.678 13.53C200.496 13.666 200.406 13.8473 200.406 14.074C200.406 14.312 200.468 14.499 200.593 14.635C200.729 14.7597 200.978 14.8503 201.341 14.907L202.344 15.043C204.304 15.3037 205.285 16.199 205.285 17.729C205.285 18.1597 205.194 18.5563 205.013 18.919C204.831 19.2817 204.571 19.599 204.231 19.871C203.902 20.1317 203.5 20.3357 203.024 20.483C202.559 20.6303 202.038 20.704 201.46 20.704Z" fill="black"/>
</g>
<defs>
<clipPath id="clip0_713_24">
<rect width="220" height="30" fill="white"/>
</clipPath>
</defs>
</svg>
