<svg width="220" height="30" viewBox="0 0 220 30" fill="none" xmlns="http://www.w3.org/2000/svg">
<g clip-path="url(#clip0_901_22)">
<path d="M0 8C0 3.58172 3.25611 0 7.27273 0H130V30H7.27273C3.25612 30 0 26.4183 0 22V8Z" fill="#A07E06"/>
<path d="M220 8C220 3.58172 216.418 0 212 0H130V30H212C216.418 30 220 26.4183 220 22V8Z" fill="#F7DCB3"/>
<path d="M35.2376 21.7373C34.1325 21.7373 33.246 21.4458 32.5781 20.8629C31.9101 20.28 31.5762 19.5149 31.5762 18.5677H34.0171C34.0171 18.8956 34.1264 19.1628 34.345 19.3692C34.5758 19.5635 34.8733 19.6607 35.2376 19.6607H36.877C37.6057 19.6607 37.97 19.4603 37.97 19.0595V18.7499C37.97 18.6284 37.9093 18.5191 37.7878 18.422C37.6664 18.3127 37.5024 18.2398 37.296 18.2034L34.1446 17.6569C33.4038 17.5354 32.8149 17.2744 32.3777 16.8736C31.9527 16.4607 31.7401 15.981 31.7401 15.4346V14.8334C31.7401 14.0562 32.0558 13.449 32.6873 13.0118C33.331 12.5746 34.2235 12.3561 35.3651 12.3561H36.7859C37.806 12.3561 38.6258 12.6293 39.2451 13.1758C39.8766 13.7101 40.1923 14.4205 40.1923 15.307H37.7514C37.7514 15.0398 37.6603 14.8274 37.4782 14.6695C37.3082 14.5116 37.0774 14.4327 36.7859 14.4327H35.4015C34.6122 14.4327 34.2175 14.6148 34.2175 14.9792V15.2706C34.2175 15.4042 34.2661 15.5196 34.3632 15.6167C34.4725 15.7018 34.6243 15.7624 34.8186 15.7989L38.1339 16.4C38.8261 16.5215 39.3848 16.7825 39.8098 17.1833C40.2348 17.5719 40.4474 18.0152 40.4474 18.5131V19.1688C40.4474 19.9582 40.1195 20.5836 39.4637 21.0451C38.8201 21.5065 37.9578 21.7373 36.877 21.7373H35.2376ZM45.8752 21.5916C44.8065 21.5916 44.0232 21.3487 43.5253 20.8629C43.0274 20.3771 42.7784 19.6242 42.7784 18.6041V14.6148H41.1754V12.5018H42.8513V9.75116H45.2558V12.5018H47.6239V14.6148H45.2558V18.4948C45.2558 18.8349 45.3165 19.0838 45.438 19.2417C45.5715 19.3996 45.778 19.4785 46.0573 19.4785H47.6239V21.5916H45.8752ZM52.0401 21.7373C51.0929 21.7373 50.3278 21.5005 49.7449 21.0269C49.162 20.5533 48.8705 19.9279 48.8705 19.1506V18.4766C48.8705 17.7116 49.1742 17.0983 49.7813 16.6368C50.3886 16.1632 51.1901 15.9264 52.1858 15.9264H53.297C53.6128 15.9264 53.9528 15.9689 54.3171 16.0539C54.6814 16.1389 55.0154 16.2543 55.319 16.4V15.4528C55.319 15.1491 55.2158 14.9063 55.0093 14.7241C54.8151 14.5298 54.5539 14.4327 54.226 14.4327H52.6595C52.3195 14.4327 52.0462 14.5116 51.8397 14.6695C51.6333 14.8274 51.5301 15.0398 51.5301 15.307H49.1256C49.1256 14.4205 49.4474 13.7101 50.091 13.1758C50.7468 12.6293 51.6029 12.3561 52.6595 12.3561H54.226C55.2947 12.3561 56.1569 12.6415 56.8127 13.2122C57.4685 13.7709 57.7964 14.5177 57.7964 15.4528V21.5916H55.5012V20.4986C55.2097 20.8751 54.8515 21.1786 54.4264 21.4094C54.0014 21.628 53.5824 21.7373 53.1695 21.7373H52.0401ZM53.3517 19.8428C53.801 19.8428 54.2018 19.7275 54.5539 19.4967C54.9062 19.266 55.1612 18.9563 55.319 18.5677V18.258C55.1247 18.1123 54.8515 17.997 54.4993 17.9119C54.1593 17.8269 53.795 17.7844 53.4063 17.7844H52.2587C51.9672 17.7844 51.7304 17.8573 51.5483 18.003C51.3661 18.1487 51.275 18.3431 51.275 18.5859V19.0595C51.275 19.2903 51.3722 19.4785 51.5665 19.6242C51.773 19.77 52.0401 19.8428 52.368 19.8428H53.3517ZM63.771 21.5916C62.7023 21.5916 61.919 21.3487 61.4211 20.8629C60.9232 20.3771 60.6742 19.6242 60.6742 18.6041V14.6148H59.0712V12.5018H60.7471V9.75116H63.1516V12.5018H65.5197V14.6148H63.1516V18.4948C63.1516 18.8349 63.2123 19.0838 63.3338 19.2417C63.4673 19.3996 63.6738 19.4785 63.9531 19.4785H65.5197V21.5916H63.771ZM68.8378 11.6456C68.3642 11.6456 67.9817 11.512 67.6902 11.2449C67.4109 10.9656 67.2713 10.6012 67.2713 10.1519C67.2713 9.70258 67.4109 9.34434 67.6902 9.07717C67.9817 8.79786 68.3642 8.6582 68.8378 8.6582C69.3114 8.6582 69.6879 8.79786 69.9672 9.07717C70.2587 9.34434 70.4044 9.70258 70.4044 10.1519C70.4044 10.6012 70.2587 10.9656 69.9672 11.2449C69.6879 11.512 69.3114 11.6456 68.8378 11.6456ZM67.5991 12.5018H70.0765V21.5916H67.5991V12.5018ZM76.0347 21.7373C75.2697 21.7373 74.5896 21.5855 73.9945 21.2819C73.4116 20.9783 72.9562 20.5533 72.6283 20.0068C72.3126 19.4603 72.1547 18.8288 72.1547 18.1123V15.981C72.1547 15.2646 72.3126 14.6331 72.6283 14.0866C72.9562 13.5401 73.4116 13.1151 73.9945 12.8115C74.5774 12.5078 75.2514 12.3561 76.0165 12.3561H77.4556C78.1842 12.3561 78.8278 12.5018 79.3865 12.7932C79.9451 13.0847 80.3762 13.4976 80.6798 14.0319C80.9834 14.5541 81.1352 15.1613 81.1352 15.8535H78.676C78.676 15.4406 78.5607 15.1127 78.3299 14.8699C78.1113 14.6148 77.8199 14.4873 77.4556 14.4873H76.0529C75.6279 14.4873 75.2818 14.6452 75.0146 14.9609C74.7596 15.2646 74.6321 15.6653 74.6321 16.1632V17.9301C74.6321 18.428 74.7657 18.8349 75.0328 19.1506C75.3 19.4542 75.6461 19.606 76.0712 19.606H77.4738C77.8624 19.606 78.172 19.4663 78.4028 19.1871C78.6457 18.9078 78.7671 18.5373 78.7671 18.0759H81.2263C81.2263 19.181 80.8802 20.0675 80.188 20.7354C79.5079 21.4034 78.6032 21.7373 77.4738 21.7373H76.0347ZM82.7122 8.84036H85.1896V13.4126C85.4567 13.0969 85.7846 12.8418 86.1733 12.6475C86.574 12.4532 86.9565 12.3561 87.3209 12.3561H88.4503C89.4213 12.3561 90.1988 12.6597 90.7817 13.2669C91.3771 13.874 91.6743 14.6755 91.6743 15.6714V21.5916H89.1969V15.7624C89.1969 15.386 89.0934 15.0824 88.8873 14.8516C88.6927 14.6209 88.4381 14.5055 88.1224 14.5055H86.993C86.5679 14.5055 86.1853 14.6634 85.8454 14.9792C85.5175 15.2828 85.2989 15.6835 85.1896 16.1814V21.5916H82.7122V8.84036ZM97.1863 21.7373C96.4212 21.7373 95.7406 21.5916 95.1461 21.3001C94.5632 20.9965 94.1078 20.5715 93.7799 20.025C93.4636 19.4785 93.3063 18.847 93.3063 18.1305V15.9993C93.3063 15.2828 93.4703 14.6513 93.7981 14.1048C94.126 13.5461 94.5814 13.1151 95.1643 12.8115C95.7588 12.5078 96.4395 12.3561 97.2045 12.3561H98.844C99.609 12.3561 100.283 12.5078 100.866 12.8115C101.46 13.1151 101.922 13.5461 102.25 14.1048C102.578 14.6513 102.742 15.2828 102.742 15.9993V18.1305C102.742 18.847 102.578 19.4785 102.25 20.025C101.922 20.5715 101.46 20.9965 100.866 21.3001C100.283 21.5916 99.6024 21.7373 98.8258 21.7373H97.1863ZM98.7893 19.606C99.2381 19.606 99.5966 19.4542 99.8641 19.1506C100.131 18.8349 100.265 18.428 100.265 17.9301V16.1632C100.265 15.6653 100.131 15.2646 99.8641 14.9609C99.5966 14.6452 99.2447 14.4873 98.8075 14.4873H97.241C96.8038 14.4873 96.4511 14.6452 96.1844 14.9609C95.917 15.2646 95.7837 15.6653 95.7837 16.1632V17.9301C95.7837 18.428 95.917 18.8349 96.1844 19.1506C96.4511 19.4542 96.7972 19.606 97.2228 19.606H98.7893ZM107.71 21.7373C106.605 21.7373 105.719 21.4458 105.051 20.8629C104.382 20.28 104.049 19.5149 104.049 18.5677H106.49C106.49 18.8956 106.599 19.1628 106.818 19.3692C107.049 19.5635 107.346 19.6607 107.71 19.6607H109.35C110.078 19.6607 110.443 19.4603 110.443 19.0595V18.7499C110.443 18.6284 110.382 18.5191 110.26 18.422C110.139 18.3127 109.975 18.2398 109.769 18.2034L106.617 17.6569C105.876 17.5354 105.287 17.2744 104.85 16.8736C104.426 16.4607 104.213 15.981 104.213 15.4346V14.8334C104.213 14.0562 104.528 13.449 105.16 13.0118C105.803 12.5746 106.696 12.3561 107.838 12.3561H109.259C110.279 12.3561 111.098 12.6293 111.718 13.1758C112.349 13.7101 112.665 14.4205 112.665 15.307H110.224C110.224 15.0398 110.133 14.8274 109.951 14.6695C109.781 14.5116 109.55 14.4327 109.259 14.4327H107.874C107.085 14.4327 106.69 14.6148 106.69 14.9792V15.2706C106.69 15.4042 106.739 15.5196 106.836 15.6167C106.945 15.7018 107.097 15.7624 107.291 15.7989L110.607 16.4C111.299 16.5215 111.858 16.7825 112.282 17.1833C112.707 17.5719 112.92 18.0152 112.92 18.5131V19.1688C112.92 19.9582 112.592 20.5836 111.936 21.0451C111.293 21.5065 110.43 21.7373 109.35 21.7373H107.71ZM118.348 21.5916C117.279 21.5916 116.496 21.3487 115.998 20.8629C115.5 20.3771 115.251 19.6242 115.251 18.6041V14.6148H113.648V12.5018H115.324V9.75116H117.728V12.5018H120.096V14.6148H117.728V18.4948C117.728 18.8349 117.789 19.0838 117.91 19.2417C118.044 19.3996 118.251 19.4785 118.53 19.4785H120.096V21.5916H118.348Z" fill="#F7DCB3"/>
<path fill-rule="evenodd" clip-rule="evenodd" d="M21.234 10.014C20.2493 9.45199 19.2647 9.17097 18.28 9.17097C15.52 9.17097 12.76 11.379 10 15.795C10.7642 17.0177 11.5284 18.0711 12.2926 18.9554L13.4657 17.7823C13.0319 17.2723 12.5918 16.6949 12.146 16.0486L11.9723 15.7941L12.146 15.5414C14.3563 12.3366 16.4283 10.827 18.28 10.827L18.4348 10.8305C18.9431 10.8534 19.4678 10.989 20.007 11.2411L21.234 10.014ZM16.8918 16.6982L19.1832 14.4067C19.6364 14.7022 19.936 15.2136 19.936 15.795C19.936 16.7096 19.1946 17.451 18.28 17.451C17.6987 17.451 17.1872 17.1514 16.8918 16.6982ZM14.6069 18.983C15.8446 20.1305 17.023 20.7098 18.1252 20.7595L18.28 20.763C20.1317 20.763 22.2037 19.2534 24.414 16.0486L24.5869 15.7941L24.414 15.5414C23.3882 14.0539 22.3921 12.9317 21.4339 12.156L22.6086 10.9813C23.9257 12.083 25.2429 13.6875 26.56 15.795C23.8 20.2109 21.04 22.419 18.28 22.419C16.6656 22.419 15.0514 21.6636 13.4371 20.1529L14.6069 18.983Z" fill="#F7DCB3"/>
<path fill-rule="evenodd" clip-rule="evenodd" d="M26.075 9.17097L11.656 23.5899L10.485 22.419L24.904 8L26.075 9.17097Z" fill="#F7DCB3"/>
<path d="M144.581 11.575H147.012L147.879 15.179L148.491 17.899H148.559L149.273 15.179L150.293 11.575H152.588L153.625 15.179L154.356 17.899H154.424L155.036 15.179L155.903 11.575H158.232L155.767 20.5H153.132L152.044 16.726L151.415 14.414H151.364L150.752 16.726L149.664 20.5H147.08L144.581 11.575ZM166.089 20.5C165.635 20.5 165.256 20.3583 164.95 20.075C164.655 19.7917 164.468 19.412 164.389 18.936H164.287C164.151 19.514 163.85 19.956 163.386 20.262C162.921 20.5567 162.349 20.704 161.669 20.704C160.773 20.704 160.088 20.466 159.612 19.99C159.136 19.514 158.898 18.885 158.898 18.103C158.898 17.1623 159.238 16.4653 159.918 16.012C160.609 15.5473 161.544 15.315 162.723 15.315H164.134V14.754C164.134 14.3233 164.02 13.9833 163.794 13.734C163.567 13.4733 163.187 13.343 162.655 13.343C162.156 13.343 161.759 13.4507 161.465 13.666C161.17 13.8813 160.926 14.125 160.734 14.397L159.238 13.071C159.6 12.5383 160.054 12.1247 160.598 11.83C161.153 11.524 161.901 11.371 162.842 11.371C164.111 11.371 165.063 11.6487 165.698 12.204C166.332 12.7593 166.65 13.5697 166.65 14.635V18.545H167.483V20.5H166.089ZM162.604 18.953C163.023 18.953 163.38 18.8623 163.675 18.681C163.981 18.4997 164.134 18.205 164.134 17.797V16.743H162.91C161.924 16.743 161.431 17.0773 161.431 17.746V18.001C161.431 18.3297 161.533 18.5733 161.737 18.732C161.941 18.8793 162.23 18.953 162.604 18.953ZM170.43 10.623C169.92 10.623 169.546 10.5097 169.308 10.283C169.081 10.045 168.968 9.74467 168.968 9.382V9.008C168.968 8.64533 169.081 8.35067 169.308 8.124C169.546 7.886 169.92 7.767 170.43 7.767C170.94 7.767 171.308 7.886 171.535 8.124C171.773 8.35067 171.892 8.64533 171.892 9.008V9.382C171.892 9.74467 171.773 10.045 171.535 10.283C171.308 10.5097 170.94 10.623 170.43 10.623ZM169.172 11.575H171.688V20.5H169.172V11.575ZM177.164 20.5C176.291 20.5 175.628 20.279 175.175 19.837C174.733 19.395 174.512 18.749 174.512 17.899V13.53H173.254V11.575H173.883C174.223 11.575 174.455 11.4957 174.58 11.337C174.704 11.167 174.767 10.929 174.767 10.623V9.161H177.028V11.575H178.796V13.53H177.028V18.545H178.66V20.5H177.164ZM181.802 10.623C181.292 10.623 180.918 10.5097 180.68 10.283C180.453 10.045 180.34 9.74467 180.34 9.382V9.008C180.34 8.64533 180.453 8.35067 180.68 8.124C180.918 7.886 181.292 7.767 181.802 7.767C182.312 7.767 182.68 7.886 182.907 8.124C183.145 8.35067 183.264 8.64533 183.264 9.008V9.382C183.264 9.74467 183.145 10.045 182.907 10.283C182.68 10.5097 182.312 10.623 181.802 10.623ZM180.544 11.575H183.06V20.5H180.544V11.575ZM185.408 20.5V11.575H187.924V13.088H188.026C188.185 12.6233 188.462 12.221 188.859 11.881C189.256 11.541 189.805 11.371 190.508 11.371C191.426 11.371 192.117 11.677 192.582 12.289C193.058 12.901 193.296 13.7737 193.296 14.907V20.5H190.78V15.111C190.78 14.533 190.689 14.108 190.508 13.836C190.327 13.5527 190.004 13.411 189.539 13.411C189.335 13.411 189.137 13.4393 188.944 13.496C188.751 13.5413 188.576 13.6207 188.417 13.734C188.27 13.8473 188.151 13.989 188.06 14.159C187.969 14.3177 187.924 14.5047 187.924 14.72V20.5H185.408ZM203.797 21.146C203.797 21.622 203.712 22.0413 203.542 22.404C203.383 22.7667 203.117 23.0727 202.743 23.322C202.369 23.5827 201.87 23.7753 201.247 23.9C200.635 24.036 199.875 24.104 198.969 24.104C198.198 24.104 197.541 24.053 196.997 23.951C196.464 23.8603 196.028 23.7243 195.688 23.543C195.359 23.373 195.115 23.1577 194.957 22.897C194.809 22.6477 194.736 22.3587 194.736 22.03C194.736 21.5313 194.883 21.1403 195.178 20.857C195.472 20.5737 195.88 20.398 196.402 20.33V20.143C195.971 20.0637 195.648 19.8823 195.433 19.599C195.217 19.3043 195.11 18.9643 195.11 18.579C195.11 18.341 195.155 18.137 195.246 17.967C195.348 17.7857 195.472 17.6327 195.62 17.508C195.778 17.372 195.96 17.2643 196.164 17.185C196.368 17.1057 196.572 17.0433 196.776 16.998V16.93C196.232 16.6807 195.829 16.3407 195.569 15.91C195.308 15.468 195.178 14.958 195.178 14.38C195.178 13.4733 195.489 12.748 196.113 12.204C196.747 11.6487 197.711 11.371 199.003 11.371C199.592 11.371 200.096 11.4277 200.516 11.541V11.201C200.516 10.725 200.629 10.385 200.856 10.181C201.094 9.96567 201.428 9.858 201.859 9.858H203.27V11.728H201.298V11.83C201.819 12.0793 202.204 12.425 202.454 12.867C202.703 13.2977 202.828 13.802 202.828 14.38C202.828 15.2753 202.51 15.995 201.876 16.539C201.252 17.0717 200.295 17.338 199.003 17.338C198.425 17.338 197.898 17.2757 197.422 17.151C197.161 17.321 197.031 17.559 197.031 17.865C197.031 18.0803 197.11 18.2503 197.269 18.375C197.439 18.4883 197.716 18.545 198.102 18.545H200.686C201.774 18.545 202.561 18.7717 203.049 19.225C203.547 19.6783 203.797 20.3187 203.797 21.146ZM201.434 21.486C201.434 21.2253 201.332 21.027 201.128 20.891C200.924 20.755 200.567 20.687 200.057 20.687H196.997C196.883 20.8003 196.798 20.925 196.742 21.061C196.696 21.2083 196.674 21.35 196.674 21.486C196.674 21.8147 196.815 22.0527 197.099 22.2C197.382 22.3587 197.864 22.438 198.544 22.438H199.564C200.244 22.438 200.725 22.3587 201.009 22.2C201.292 22.0527 201.434 21.8147 201.434 21.486ZM199.003 15.689C199.501 15.689 199.87 15.587 200.108 15.383C200.357 15.1677 200.482 14.8617 200.482 14.465V14.261C200.482 13.8643 200.357 13.564 200.108 13.36C199.87 13.1447 199.501 13.037 199.003 13.037C198.504 13.037 198.13 13.1447 197.881 13.36C197.643 13.564 197.524 13.8643 197.524 14.261V14.465C197.524 14.8617 197.643 15.1677 197.881 15.383C198.13 15.587 198.504 15.689 199.003 15.689Z" fill="black"/>
</g>
<defs>
<clipPath id="clip0_901_22">
<rect width="220" height="30" fill="white"/>
</clipPath>
</defs>
</svg>
